<?xml version="1.0" standalone="no"?>
<!DOCTYPE svg PUBLIC "-//W3C//DTD SVG 1.1//EN" "http://www.w3.org/Graphics/SVG/1.1/DTD/svg11.dtd">
<svg version="1.1" xmlns="http://www.w3.org/2000/svg" xmlns:xlink="http://www.w3.org/1999/xlink"><metadata>This SVG WebFont was generated by YouWorkForThem.
</metadata><defs><font horiz-adv-x="585" id="ywftsvg"><font-face ascent="800" bbox="-179 -292 1148 1061" cap-height="750" descent="-200" font-family="" font-stretch="normal" font-weight="300" panose-1="0 0 0 0 0 0 0 0 0 0" underline-position="0" underline-thickness="0" unicode-range="U+000D-E0021" units-per-em="1000" x-height="560"/><missing-glyph horiz-adv-x="250"/><glyph d="M294 697q-32 0 -51.5 -10.5t-28 -33t-10.5 -41.5t-2 -52h96q49 0 61.5 20.5t12.5 99.5h56v-120h189v-68h-189v-352q0 -72 54 -72h135v-68h-138q-125 0 -125 118v374h-152v-492h-74v492h-92v52l92 16v33q0 84 40.5 128t116.5 44h74v-68h-65z" glyph-name="uniE014" horiz-adv-x="637" unicode="ft"/><glyph d="M294 682q-55 0 -73.5 -31.5t-18.5 -90.5h152v33q0 84 40.5 128t117.5 44h74v-68h-66q-25 0 -43 -8t-27.5 -19.5t-14.5 -31.5t-6 -36t-1 -42h96q49 0 61.5 20.5t12.5 99.5h56v-120h189v-68h-189v-352q0 -72 54 -72h135v-68h-137q-126 0 -126 118v374h-152v-492h-74v492 h-152v-492h-74v492h-92v52l92 16v20q0 84 40.5 127t116.5 43h57v-68h-48z" glyph-name="uniE015" horiz-adv-x="863" unicode="fft"/><glyph d="M614 492h-186v-492h-74v492h-152v-492h-75v492h-92v52l92 16v20q0 84 40.5 127t117.5 43h57v-68h-48q-55 0 -73.5 -31.5t-18.5 -90.5h152v33q0 84 40.5 128t116.5 44h102v-68h-93q-32 0 -51.5 -10.5t-28 -33t-10.5 -41.5t-2 -52h186v-68z" glyph-name="uniFB00" horiz-adv-x="634" unicode="ff"/><glyph d="M294 697q-25 0 -43 -8t-27.5 -19.5t-14.5 -31.5t-6 -36t-1 -42h241v-560h-74v492h-167v-492h-74v492h-93v52l93 16v33q0 84 40.5 128t116.5 44h101v-68h-92z" glyph-name="uniFB01" horiz-adv-x="478" unicode="fi"/><glyph d="M326 492h-124v-492h-74v492h-93v52l93 16v33q0 84 40.5 128t116.5 44h143v-765h-74v697h-60q-25 0 -43 -8t-27.5 -19.5t-14.5 -31.5t-6 -36t-1 -42h124v-68z" glyph-name="uniFB02" horiz-adv-x="463" unicode="fl"/><glyph d="M294 682q-55 0 -74 -31.5t-19 -90.5h153v33q0 84 40.5 128t116.5 44h102v-68h-93q-26 0 -44 -8t-27.5 -19.5t-14.5 -31.5t-6 -36t-1 -42h242v-560h-74v492h-168v-492h-73v492h-153v-492h-74v492h-92v52l92 16v20q0 84 40.5 127t117.5 43h56v-68h-47z" glyph-name="uniFB03" horiz-adv-x="704" unicode="ffi"/><glyph d="M294 682q-55 0 -73.5 -31.5t-18.5 -90.5h152v33q0 84 40.5 128t116.5 44h143v-765h-73v697h-60q-26 0 -44 -8t-27.5 -19.5t-14.5 -31.5t-6 -36t-1 -42h125v-68h-125v-492h-74v492h-152v-492h-74v492h-93v52l93 16v20q0 84 40.5 127t116.5 43h57v-68h-48z" glyph-name="uniFB04" horiz-adv-x="690" unicode="ffl"/><glyph glyph-name=".notdef" horiz-adv-x="250"/><glyph glyph-name="uni0000" horiz-adv-x="0"/><glyph glyph-name="space" horiz-adv-x="260" unicode=" "/><glyph d="M122 0h-78v106h78v-106zM134 750l-26 -597h-52l-20 597h98z" glyph-name="exclam" horiz-adv-x="169" unicode="!"/><glyph d="M50 525l-30 240h100l-30 -240h-40zM191 525l-30 240h100l-30 -240h-40z" glyph-name="quotedbl" horiz-adv-x="282" unicode="&quot;"/><glyph d="M121 0l43 168h-144v68h161l70 278h-154v68h172l43 168h68l-43 -168h230l43 168h67l-43 -168h161v-68h-179l-70 -278h172v-68h-189l-43 -168h-67l42 168h-230l-42 -168h-68zM249 236h230l69 278h-230z" glyph-name="numbersign" horiz-adv-x="816" unicode="#"/><glyph d="M115 567q0 -37 26 -62.5t67.5 -40t91.5 -26.5t100 -28.5t91.5 -39.5t67.5 -65t26 -101q0 -97 -66 -154.5t-179 -59.5v-130h-70v135q-173 27 -245 201l77 23q34 -79 91.5 -116.5t144.5 -37.5q72 0 117 37.5t45 98.5q0 43 -26 73.5t-67.5 47t-91.5 29.5t-100 28t-91.5 35.5 t-67.5 58t-26 90.5q0 87 65 140t175 56v131h70v-133q160 -23 225 -205l-76 -20q-34 79 -84.5 116t-123.5 37q-74 0 -120 -33t-46 -85z" glyph-name="dollar" horiz-adv-x="611" unicode="$"/><glyph d="M395 158q0 80 32 124t90 44t90 -44t32 -124q0 -81 -31.5 -124.5t-90.5 -43.5t-90.5 43.5t-31.5 124.5zM542 733l-370 -743h-58l366 735h-257q41 -43 41 -133q0 -81 -31.5 -124.5t-90.5 -43.5t-90.5 43.5t-31.5 124.5q0 168 130 168h383zM437 158q0 -131 80 -131t80 132 q0 130 -80 130t-80 -131zM142 723q-80 0 -80 -131t80 -131t80 132q0 130 -80 130z" glyph-name="percent" horiz-adv-x="659" unicode="%"/><glyph d="M628 356l79 -20q-39 -125 -102 -205l133 -125v-6h-100l-83 78q-101 -88 -257 -88q-128 0 -200.5 56t-72.5 155q0 70 45 127t119 83q-107 74 -107 169q0 81 61 130.5t158 49.5q98 0 159 -52t61 -134q0 -74 -50 -126t-133 -66l211 -198q51 69 79 172zM110 213 q0 -70 55.5 -109.5t155.5 -39.5q103 0 178 66l-251 235q-64 -14 -101 -54t-37 -98zM167 566q0 -56 41 -97.5t97 -41.5q54 0 92.5 39t38.5 96q0 55 -38.5 89.5t-98.5 34.5t-96 -34.5t-36 -85.5z" glyph-name="ampersand" horiz-adv-x="763" unicode="&amp;"/><glyph d="M50 525l-30 240h100l-30 -240h-40z" glyph-name="quotesingle" horiz-adv-x="141" unicode="'"/><glyph d="M221 -200q-98 112 -149.5 258t-51.5 300q0 155 51 296.5t150 245.5l58 -47q-164 -229 -164 -493t164 -512z" glyph-name="parenleft" horiz-adv-x="299" unicode="("/><glyph d="M78 900q98 -112 149.5 -258t51.5 -300q0 -155 -51 -296.5t-150 -245.5l-58 47q164 229 164 493t-164 512z" glyph-name="parenright" horiz-adv-x="299" unicode=")"/><glyph d="M113 525v75l-60 -44l-28 38l70 51l-70 51l28 38l60 -44v75h46v-75l61 44l27 -38l-70 -51l70 -51l-27 -38l-61 44v-75h-46z" glyph-name="asterisk" horiz-adv-x="272" unicode="*"/><glyph d="M25 343v64h174v173h62v-173h174v-64h-174v-173h-62v173h-174z" glyph-name="plus" horiz-adv-x="461" unicode="+"/><glyph d="M25 0v106h79v-106l-33 -77h-35l28 77h-39z" glyph-name="comma" horiz-adv-x="129" unicode=","/><glyph d="M25 343v64h400v-64h-400z" glyph-name="hyphen" horiz-adv-x="451" unicode="-"/><glyph d="M25 0v106h79v-106h-79z" glyph-name="period" horiz-adv-x="129" unicode="."/><glyph d="M25 -200l254 1051h85l-254 -1051h-85z" glyph-name="slash" horiz-adv-x="390" unicode="/"/><glyph d="M26 375q0 185 72 285t206 100q132 0 204 -100t72 -285t-72 -285t-204 -100q-134 0 -206 100t-72 285zM111 376q0 -311 192 -311t192 312q0 308 -191 308q-193 0 -193 -309z" glyph-name="zero" horiz-adv-x="605" unicode="0"/><glyph d="M117 631h-92v49q57 0 82.5 16t28.5 54h61v-750h-80v631z" glyph-name="one" horiz-adv-x="233" unicode="1"/><glyph d="M548 555q0 -109 -116 -218l-281 -263h399v-74h-526v69l334 309q105 97 105 175q0 55 -43.5 93.5t-106.5 38.5q-74 0 -126 -37t-90 -117l-76 21q93 208 296 208q104 0 167.5 -56t63.5 -149z" glyph-name="two" horiz-adv-x="570" unicode="2"/><glyph d="M328 397h-52l-48 41l253 237h-410v74h515v-73l-230 -223q109 -5 174.5 -62.5t65.5 -148.5q0 -119 -70.5 -185.5t-196.5 -66.5q-226 0 -303 231l80 23q64 -179 219 -179q83 0 134 45.5t51 121.5q0 75 -49.5 120t-132.5 45z" glyph-name="three" horiz-adv-x="621" unicode="3"/><glyph d="M21 173v74l366 503h95v-504h92v-73h-92v-173h-80v173h-381zM100 246h302v414z" glyph-name="four" horiz-adv-x="609" unicode="4"/><glyph d="M114 323l-79 20l56 407h484v-74h-417l-37 -272q42 49 103.5 77.5t126.5 28.5q115 0 180 -66t65 -182q0 -124 -72.5 -198t-197.5 -74q-112 0 -191 61t-109 170l82 16q65 -172 217 -172q88 0 136.5 51t48.5 143q0 88 -45 135.5t-128 47.5q-128 0 -223 -119z" glyph-name="five" horiz-adv-x="616" unicode="5"/><glyph d="M581 255q0 -120 -71.5 -192.5t-190.5 -72.5q-137 0 -215.5 97.5t-78.5 268.5q0 186 80 295t216 109q169 0 244 -166l-68 -30q-54 126 -177 126q-94 0 -152 -82t-58 -223q67 125 221 125q115 0 182.5 -68.5t67.5 -186.5zM495 245q0 88 -47.5 140t-127.5 52 q-76 0 -128 -50.5t-52 -127.5q0 -79 54.5 -136.5t133.5 -57.5q73 0 120 50t47 130z" glyph-name="six" horiz-adv-x="606" unicode="6"/><glyph d="M20 676v74h495v-80l-376 -670h-92l384 676h-411z" glyph-name="seven" horiz-adv-x="536" unicode="7"/><glyph d="M26 204q0 121 120 187q-101 57 -101 158q0 94 71.5 152.5t186.5 58.5t186.5 -59t71.5 -154q0 -51 -23.5 -88t-76.5 -69q119 -65 119 -181q0 -96 -78 -157.5t-201 -61.5q-121 0 -198 60t-77 154zM111 217q0 -68 53.5 -110t138.5 -42q83 0 137.5 40.5t54.5 102.5 q0 70 -50 107.5t-141 37.5q-90 0 -141.5 -36t-51.5 -100zM130 543q0 -61 47.5 -94.5t127.5 -33.5q79 0 125 33.5t46 94.5q0 62 -48 102t-124 40q-77 0 -125.5 -39.5t-48.5 -102.5z" glyph-name="eight" horiz-adv-x="605" unicode="8"/><glyph d="M293 58q98 0 150 78t52 229q-29 -58 -87.5 -91.5t-136.5 -33.5q-112 0 -178.5 67.5t-66.5 185.5q0 122 72 194.5t192 72.5q137 0 213.5 -97t76.5 -270q0 -192 -74.5 -297.5t-209.5 -105.5q-185 0 -254 166l68 30q50 -128 183 -128zM485 491q0 87 -55 144t-139 57 q-81 0 -130.5 -53t-49.5 -142q0 -86 49.5 -137.5t134.5 -51.5q83 0 136.5 49.5t53.5 133.5z" glyph-name="nine" horiz-adv-x="605" unicode="9"/><glyph d="M20 0v106h79v-106h-79zM20 454v106h79v-106h-79z" glyph-name="colon" horiz-adv-x="119" unicode=":"/><glyph d="M25 0v106h79v-106l-33 -77h-35l28 77h-39zM25 454v106h79v-106h-79z" glyph-name="semicolon" horiz-adv-x="129" unicode=";"/><glyph d="M25 335v80l600 335v-80l-520 -295l520 -295v-80z" glyph-name="less" horiz-adv-x="651" unicode="&lt;"/><glyph d="M25 388v67h380v-67h-380zM25 225v67h380v-67h-380z" glyph-name="equal" horiz-adv-x="431" unicode="="/><glyph d="M625 415v-80l-600 -335v80l520 295l-520 295v80z" glyph-name="greater" horiz-adv-x="651" unicode=">"/><glyph d="M209 0v105h78v-105h-78zM452 546q0 64 -41 101.5t-111 37.5q-65 0 -111.5 -37t-88.5 -121l-75 25q95 208 280 208q103 0 167.5 -57.5t64.5 -147.5q0 -48 -13.5 -84.5t-35.5 -59t-48.5 -41t-53.5 -36t-49 -38.5t-35.5 -54t-13.5 -77v-12h-80q0 59 18 104.5t45 71t59 50.5 t59 44.5t45 51t18 71.5z" glyph-name="question" horiz-adv-x="563" unicode="?"/><glyph d="M885 0h-22q-123 0 -137 119q-31 -61 -85.5 -95t-122.5 -34q-109 0 -180 83t-71 211q0 127 69 206.5t180 79.5q140 0 207 -122v112h74v-413q0 -38 20 -58.5t57 -20.5h21q62 0 96.5 70t34.5 196q0 198 -126.5 315.5t-339.5 117.5q-225 0 -348 -132t-123 -363 q0 -215 119.5 -337t329.5 -122q93 0 154.5 15.5t126.5 51.5v-63q-44 -28 -125 -47.5t-146 -19.5q-244 0 -383.5 141t-139.5 390q0 248 144 398.5t395 150.5q236 0 381 -132.5t145 -348.5q0 -165 -54 -257t-151 -92zM723 282q0 96 -51.5 156t-134.5 60q-84 0 -137.5 -60.5 t-53.5 -154.5t54.5 -157.5t136.5 -63.5q80 0 133 62.5t53 157.5z" glyph-name="at" horiz-adv-x="1116" unicode="@"/><glyph d="M21 0l280 750h82l280 -750h-86l-63 173h-344l-63 -173h-86zM196 245h292l-146 401z" glyph-name="A" horiz-adv-x="683" unicode="A"/><glyph d="M35 0v750h303q106 0 165.5 -50.5t59.5 -142.5q0 -123 -107 -170q124 -47 124 -190q0 -96 -58 -146.5t-169 -50.5h-318zM115 74h226q154 0 154 132q0 70 -40 106.5t-115 36.5h-225v-275zM115 420h212q151 0 151 128t-152 128h-211v-256z" glyph-name="B" horiz-adv-x="605" unicode="B"/><glyph d="M111 376q0 -138 72.5 -224.5t187.5 -86.5q98 0 166.5 64t85.5 171l77 -23q-26 -137 -111.5 -212t-215.5 -75q-157 0 -252 105.5t-95 279.5t95 279.5t252 105.5q130 0 215.5 -75t111.5 -212l-77 -23q-17 107 -85.5 171t-166.5 64q-115 0 -187.5 -86t-72.5 -223z" glyph-name="C" horiz-adv-x="725" unicode="C"/><glyph d="M36 0v750h272q160 0 251 -99.5t91 -275.5t-91 -275.5t-251 -99.5h-272zM116 75h200q114 0 181.5 79.5t67.5 221.5t-67.5 220.5t-182.5 78.5h-199v-600z" glyph-name="D" horiz-adv-x="675" unicode="D"/><glyph d="M36 0v750h504v-74h-424v-265h404v-73h-404v-264h424v-74h-504z" glyph-name="E" horiz-adv-x="560" unicode="E"/><glyph d="M36 0v750h504v-74h-424v-272h404v-74h-404v-330h-80z" glyph-name="F" horiz-adv-x="560" unicode="F"/><glyph d="M372 425h333q5 -29 5 -68q0 -173 -89 -269.5t-246 -96.5q-159 0 -254.5 105t-95.5 279t95 280t252 106q115 0 197 -60t117 -171l-79 -24q-24 83 -87.5 131.5t-148.5 48.5q-118 0 -189.5 -88t-71.5 -227q0 -141 74 -223t200 -82q118 0 178 75.5t63 211.5h-253v72z" glyph-name="G" horiz-adv-x="736" unicode="G"/><glyph d="M36 0v750h80v-339h454v339h80v-750h-80v338h-454v-338h-80z" glyph-name="H" horiz-adv-x="685" unicode="H"/><glyph d="M35 0v750h80v-750h-80z" glyph-name="I" horiz-adv-x="151" unicode="I"/><glyph d="M285 198v552h80v-571q0 -179 -177 -179h-168v74h141q124 0 124 124z" glyph-name="J" horiz-adv-x="401" unicode="J"/><glyph d="M115 750v-347l365 347h104l-394 -375l394 -375h-104l-365 347v-347h-80v750h80z" glyph-name="K" horiz-adv-x="605" unicode="K"/><glyph d="M36 0v750h80v-676h424v-74h-504z" glyph-name="L" horiz-adv-x="560" unicode="L"/><glyph d="M35 0v750h102l278 -652l279 652h102v-750h-80v625l-259 -625h-83l-259 625v-625h-80z" glyph-name="M" horiz-adv-x="831" unicode="M"/><glyph d="M35 0v750h105l433 -657v657h80v-750h-105l-433 656v-656h-80z" glyph-name="N" horiz-adv-x="689" unicode="N"/><glyph d="M26 375q0 173 94 279t249 106q154 0 247.5 -106t93.5 -279t-93.5 -279t-247.5 -106q-155 0 -249 106t-94 279zM111 376q0 -149 74 -230t184 -81q109 0 182.5 81t73.5 230q0 147 -73.5 228t-182.5 81q-110 0 -184 -80.5t-74 -228.5z" glyph-name="O" horiz-adv-x="735" unicode="O"/><glyph d="M35 0v750h269q140 0 215.5 -68.5t75.5 -196.5t-75 -196.5t-215 -68.5h-190v-220h-80zM115 294h196q97 0 148 49.5t51 142.5q0 92 -51.5 141t-149.5 49h-194v-382z" glyph-name="P" horiz-adv-x="620" unicode="P"/><glyph d="M350 -144l-20 136q-139 14 -222 117.5t-83 265.5q0 173 94.5 279t249.5 106q153 0 247 -106t94 -279q0 -161 -81.5 -264.5t-218.5 -118.5l14 -106q6 -51 60 -51h161v-75h-171q-58 0 -86.5 22.5t-37.5 73.5zM110 375q0 -150 73.5 -230t185.5 -80q110 0 183 80t73 230 t-73 230t-183 80q-112 0 -185.5 -80t-73.5 -230z" glyph-name="Q" horiz-adv-x="735" unicode="Q"/><glyph d="M36 0v750h306q116 0 184.5 -58.5t68.5 -158.5q0 -137 -125 -189q51 -19 77 -84l102 -254v-6h-83l-99 247q-21 53 -76 53h-275v-300h-80zM116 374h209q89 0 137 39.5t48 112.5q0 72 -48 111t-137 39h-209v-302z" glyph-name="R" horiz-adv-x="674" unicode="R"/><glyph d="M115 567q0 -37 26 -62.5t67.5 -40t91.5 -26.5t100 -28.5t91.5 -39.5t67.5 -65t26 -101q0 -99 -68 -156.5t-184 -57.5q-109 0 -188.5 53t-119.5 153l76 23q35 -79 92.5 -116.5t143.5 -37.5q73 0 118 37.5t45 98.5q0 43 -26 73.5t-67.5 47t-91.5 29.5t-100 28t-91.5 35.5 t-67.5 58t-26 90.5q0 90 68.5 143.5t183.5 53.5q106 0 175 -50.5t108 -157.5l-77 -20q-33 79 -83.5 116t-123.5 37q-74 0 -120 -32.5t-46 -85.5z" glyph-name="S" horiz-adv-x="611" unicode="S"/><glyph d="M278 0v676h-257v74h594v-74h-257v-676h-80z" glyph-name="T" horiz-adv-x="635" unicode="T"/><glyph d="M640 332q0 -162 -80.5 -252t-226.5 -90t-226.5 90t-80.5 252v418h80v-418q0 -267 227 -267t227 267v418h80v-418z" glyph-name="U" horiz-adv-x="665" unicode="U"/><glyph d="M20 750h86l235 -645l235 645h86l-280 -750h-82z" glyph-name="V" horiz-adv-x="683" unicode="V"/><glyph d="M21 750h83l165 -607l158 607h77l159 -608l164 608h83l-202 -750h-85l-157 633l-158 -633h-85z" glyph-name="W" horiz-adv-x="930" unicode="W"/><glyph d="M285 375l-265 375h94l226 -324l225 324h94l-265 -375l265 -375h-94l-225 324l-226 -324h-94z" glyph-name="X" horiz-adv-x="679" unicode="X"/><glyph d="M283 335l-263 415h93l210 -348l210 348h93l-263 -415v-335h-80v335z" glyph-name="Y" horiz-adv-x="647" unicode="Y"/><glyph d="M21 74l420 602h-420v74h519v-74l-420 -602h420v-74h-519v74z" glyph-name="Z" horiz-adv-x="560" unicode="Z"/><glyph d="M36 -200v1050h254v-64h-174v-922h174v-64h-254z" glyph-name="bracketleft" horiz-adv-x="310" unicode="["/><glyph d="M110 851l254 -1051h-85l-254 1051h85z" glyph-name="backslash" horiz-adv-x="390" unicode="\"/><glyph d="M275 850v-1050h-254v64h174v922h-174v64h254z" glyph-name="bracketright" horiz-adv-x="310" unicode="]"/><glyph d="M25 525l102 240h80l103 -240h-59l-84 192l-83 -192h-59z" glyph-name="asciicircum" horiz-adv-x="335" unicode="^"/><glyph d="M20 -200v67h500v-67h-500z" glyph-name="underscore" horiz-adv-x="541" unicode="_"/><glyph d="M182 525h-40l-122 240h85z" glyph-name="grave" horiz-adv-x="203" unicode="`"/><glyph d="M294 570q98 0 157 -50.5t59 -133.5v-386h-73v114q-60 -124 -221 -124q-87 0 -138.5 43.5t-51.5 120.5q0 59 30 99t75.5 56t98.5 26t98.5 12t76.5 9.5t32 23.5q-2 52 -42.5 85t-105.5 33q-58 0 -99 -24.5t-80 -82.5l-66 20q81 159 250 159zM437 241v64 q-14 -15 -70.5 -22.5t-113 -12t-103 -31.5t-46.5 -78q0 -46 34 -72.5t93 -26.5q92 0 149 49.5t57 129.5z" glyph-name="a" horiz-adv-x="535" unicode="a"/><glyph d="M109 765v-317q32 58 85.5 90t121.5 32q111 0 180 -79.5t69 -206.5q0 -128 -71 -211t-180 -83q-67 0 -120 33t-85 92v-115h-74v765h74zM296 62q82 0 136 63.5t54 157.5t-53 154.5t-137 60.5t-135.5 -59.5t-51.5 -155.5t52.5 -158.5t134.5 -62.5z" glyph-name="b" horiz-adv-x="590" unicode="b"/><glyph d="M26 280q0 128 74.5 209t194.5 81q95 0 163 -54t91 -148l-74 -14q-20 68 -67 106t-113 38q-84 0 -137.5 -60.5t-53.5 -157.5t53.5 -157.5t137.5 -60.5q66 0 113 38t67 106l74 -14q-23 -94 -91 -148t-163 -54q-120 0 -194.5 81t-74.5 209z" glyph-name="c" horiz-adv-x="574" unicode="c"/><glyph d="M482 765h73v-765h-73v115q-32 -59 -85.5 -92t-120.5 -33q-109 0 -179.5 83t-70.5 211q0 127 69.5 206.5t179.5 79.5q68 0 121.5 -32t85.5 -90v317zM295 62q81 0 134 62.5t53 159.5q0 95 -52 154.5t-135 59.5q-84 0 -137.5 -60.5t-53.5 -153.5q0 -95 54.5 -158.5 t136.5 -63.5z" glyph-name="d" horiz-adv-x="590" unicode="d"/><glyph d="M555 257h-450q8 -86 61.5 -140.5t134.5 -54.5q66 0 112 39.5t65 112.5l71 -22q-23 -94 -91 -148t-163 -54q-119 0 -194 82t-75 210t75 208t196 80t189.5 -83t68.5 -230zM108 318h364q-13 86 -59 133t-116 47q-75 0 -126.5 -50t-62.5 -130z" glyph-name="e" horiz-adv-x="580" unicode="e"/><glyph d="M387 492h-185v-492h-74v492h-93v52l93 16v33q0 84 40.5 128t116.5 44h101v-68h-92q-25 0 -43 -8t-27.5 -19.5t-14.5 -31.5t-6 -36t-1 -42h185v-68z" glyph-name="f" horiz-adv-x="408" unicode="f"/><glyph d="M293 -250q-109 0 -178 43t-89 124l66 25q20 -62 67.5 -91t129.5 -29q98 0 145.5 47t47.5 145v98q-32 -58 -85.5 -90t-121.5 -32q-110 0 -179.5 79.5t-69.5 206.5q0 128 70.5 211t179.5 83q67 0 120.5 -33t85.5 -92v115h73v-556q0 -123 -67.5 -188.5t-194.5 -65.5z M294 498q-82 0 -136 -63t-54 -158q0 -94 53.5 -154.5t137.5 -60.5q83 0 135 59.5t52 154.5q0 97 -53 159.5t-135 62.5z" glyph-name="g" horiz-adv-x="590" unicode="g"/><glyph d="M109 765v-322q34 60 90 93.5t127 33.5q112 0 173 -62.5t61 -176.5v-331h-73v295q0 99 -43.5 151t-125.5 52q-93 0 -151 -60.5t-58 -155.5v-282h-73v765h73z" glyph-name="h" unicode="h"/><glyph d="M37 0v560h74v-560h-74zM35 610v106h79v-106h-79z" glyph-name="i" horiz-adv-x="149" unicode="i"/><glyph d="M212 -45v605h73v-618q0 -86 -48.5 -134t-136.5 -48h-79v70h66q125 0 125 125zM209 610v107h78v-107h-78z" glyph-name="j" horiz-adv-x="322" unicode="j"/><glyph d="M109 765v-445l263 240h96l-307 -280l307 -280h-96l-263 240v-240h-74v765h74z" glyph-name="k" horiz-adv-x="488" unicode="k"/><glyph d="M35 0v765h74v-765h-74z" glyph-name="l" horiz-adv-x="144" unicode="l"/><glyph d="M109 560v-100q57 110 170 110q61 0 104.5 -36t60.5 -99q27 64 74.5 99.5t108.5 35.5q81 0 129 -61.5t48 -164.5v-344h-74v323q0 83 -32.5 129t-89.5 46q-68 0 -110 -59.5t-42 -156.5v-282h-73v322q0 84 -32.5 130t-90.5 46q-68 0 -109.5 -59.5t-41.5 -156.5v-282h-74v560 h74z" glyph-name="m" horiz-adv-x="829" unicode="m"/><glyph d="M109 560v-117q34 60 90 93.5t127 33.5q112 0 173 -62.5t61 -176.5v-331h-73v295q0 99 -43.5 151t-125.5 52q-93 0 -151 -60.5t-58 -155.5v-282h-73v560h73z" glyph-name="n" unicode="n"/><glyph d="M297 -10q-118 0 -194.5 83t-76.5 211q0 127 74.5 206.5t193.5 79.5t192.5 -79.5t73.5 -208.5t-73 -210.5t-190 -81.5zM295 62q81 0 134 62.5t53 159.5q0 95 -52 154.5t-135 59.5q-84 0 -137.5 -60.5t-53.5 -153.5q0 -95 54.5 -158.5t136.5 -63.5z" glyph-name="o" unicode="o"/><glyph d="M109 -235h-74v795h74v-115q32 59 85 92t120 33q110 0 180.5 -83t70.5 -211q0 -127 -69.5 -206.5t-179.5 -79.5q-68 0 -121.5 32t-85.5 90v-347zM296 498q-81 0 -134 -62.5t-53 -159.5q0 -95 51.5 -154.5t134.5 -59.5q84 0 137.5 60.5t53.5 154.5t-54.5 157.5t-135.5 63.5 z" glyph-name="p" horiz-adv-x="590" unicode="p"/><glyph d="M481 -235v348q-31 -58 -84.5 -90.5t-121.5 -32.5q-111 0 -180.5 79.5t-69.5 206.5q0 128 70.5 211t180.5 83q68 0 121 -33t84 -92v115h74v-795h-74zM294 498q-81 0 -135.5 -63.5t-54.5 -157.5t54 -154.5t138 -60.5q82 0 133.5 59.5t51.5 153.5q0 97 -53 160t-134 63z" glyph-name="q" horiz-adv-x="590" unicode="q"/><glyph d="M36 388q0 84 44 128t128 44h112v-68h-96q-115 0 -115 -114v-378h-73v388z" glyph-name="r" horiz-adv-x="340" unicode="r"/><glyph d="M485 149q0 -74 -55.5 -116.5t-151.5 -42.5q-180 0 -253 158l68 20q32 -56 73 -81t103 -25q64 0 101 23t37 63q0 39 -38.5 62t-93 34.5t-109 26t-93 49t-38.5 89.5q0 72 59 116.5t155 44.5q181 0 226 -159l-68 -18q-35 105 -156 105q-60 0 -98.5 -23.5t-38.5 -59.5 q0 -34 38 -54t93 -32.5t109.5 -28.5t92.5 -54t38 -97z" glyph-name="s" horiz-adv-x="511" unicode="s"/><glyph d="M375 492h-188v-352q0 -72 54 -72h134v-68h-137q-125 0 -125 118v374h-92v68h36q48 0 61 21t13 99h56v-120h188v-68z" glyph-name="t" horiz-adv-x="395" unicode="t"/><glyph d="M476 0v118q-33 -60 -89.5 -94t-126.5 -34q-112 0 -173.5 62.5t-61.5 176.5v331h74v-295q0 -99 43 -151t125 -52q93 0 151 60.5t58 155.5v282h74v-560h-74z" glyph-name="u" unicode="u"/><glyph d="M254 0l-234 560h80l193 -483l192 483h80l-234 -560h-77z" glyph-name="v" unicode="v"/><glyph d="M195 0l-174 560h80l138 -459l128 459h72l128 -459l138 459h80l-174 -560h-78l-130 439l-130 -439h-78z" glyph-name="w" horiz-adv-x="805" unicode="w"/><glyph d="M351 280l234 -280h-89l-193 230l-193 -230h-90l234 280l-234 280h90l193 -230l193 230h89z" glyph-name="x" horiz-adv-x="605" unicode="x"/><glyph d="M293 -250q-109 0 -178 43t-90 124l67 25q21 -63 68.5 -91.5t128.5 -28.5q193 0 193 192v104q-33 -60 -89.5 -94t-127.5 -34q-112 0 -173.5 62.5t-61.5 176.5v331h74v-295q0 -99 43 -151t125 -52q93 0 151.5 60.5t58.5 155.5v282h73v-556q0 -123 -67 -188.5t-195 -65.5z " glyph-name="y" horiz-adv-x="591" unicode="y"/><glyph d="M21 68l360 424h-360v68h465v-68l-360 -424h360v-68h-465v68z" glyph-name="z" horiz-adv-x="506" unicode="z"/><glyph d="M21 287v76l52 20q23 9 23 36v352q0 32 23 55.5t61 23.5h196v-66h-138q-33 0 -47.5 -13.5t-14.5 -43.5v-329q0 -42 -39 -57l-39 -16l39 -16q39 -15 39 -56v-330q0 -29 14.5 -43t47.5 -14h138v-66h-196q-38 0 -61 23t-23 57v352q0 29 -23 36z" glyph-name="braceleft" horiz-adv-x="396" unicode="{"/><glyph d="M35 -250v1100h70v-1100h-70z" glyph-name="bar" horiz-adv-x="141" unicode="|"/><glyph d="M376 363v-76l-52 -19q-23 -7 -23 -36v-352q0 -34 -23 -57t-61 -23h-196v66h138q33 0 47.5 14t14.5 43v330q0 41 39 56l39 16l-39 16q-39 15 -39 57v329q0 30 -14.5 43.5t-47.5 13.5h-138v66h196q38 0 61 -23.5t23 -55.5v-352q0 -27 23 -36z" glyph-name="braceright" horiz-adv-x="396" unicode="}"/><glyph d="M335 304q34 0 49 44.5t15 147.5h62q0 -128 -28.5 -186t-91.5 -58q-37 0 -60.5 20t-34 48.5t-19 57t-23.5 48.5t-39 20q-40 0 -61 -50.5t-21 -141.5h-62q0 119 34.5 181.5t99.5 62.5q42 0 68.5 -30.5t36 -66.5t28 -66.5t47.5 -30.5z" glyph-name="asciitilde" horiz-adv-x="481" unicode="~"/><glyph glyph-name="uni00A0" horiz-adv-x="260" unicode=" "/><glyph d="M35 -190l26 597h53l20 -597h-99zM47 560h79v-106h-79v106z" glyph-name="exclamdown" horiz-adv-x="169" unicode="¡"/><glyph d="M25 280q0 116 62.5 194.5t164.5 92.5v73h70v-71q86 -8 145.5 -61t81.5 -140l-74 -14q-20 68 -67 106t-113 38q-85 0 -138 -60.5t-53 -157.5t53 -157.5t138 -60.5q66 0 113 38t67 106l74 -14q-22 -87 -81.5 -140t-145.5 -61v-71h-70v73q-102 14 -164.5 92.5t-62.5 194.5z " glyph-name="cent" horiz-adv-x="574" unicode="¢"/><glyph d="M335 686q-72 0 -110.5 -57t-38.5 -164h203v-71h-203v-320h384v-74h-560v74h50q45 0 45 45v275h-95v71h48q47 0 47 68q0 97 66 162.5t163 65.5q99 0 160 -50.5t89 -158.5l-76 -24q-18 86 -57.5 122t-114.5 36z" glyph-name="sterling" horiz-adv-x="593" unicode="£"/><glyph d="M27 359q0 110 60 179l-62 62l41 40l66 -66q52 41 123 41q69 0 127 -41l66 66l41 -40l-63 -62q61 -69 61 -177q0 -107 -60 -178l62 -60l-41 -41l-65 65q-58 -42 -129 -42q-74 0 -124 41l-64 -64l-41 41l60 60q-58 69 -58 176zM257 164q81 0 123 51.5t42 145.5 q0 93 -42 144t-123 51t-123 -51t-42 -144q0 -94 42 -145.5t123 -51.5z" glyph-name="currency" horiz-adv-x="514" unicode="¤"/><glyph d="M144 320v51h117l-241 379h93l210 -348l211 348h92l-240 -379h118v-51h-141v-87h141v-52h-141v-181h-80v181h-139v52h139v87h-139z" glyph-name="yen" horiz-adv-x="647" unicode="¥"/><glyph d="M105 350h-70v500h70v-500zM35 250h70v-500h-70v500z" glyph-name="brokenbar" horiz-adv-x="141" unicode="¦"/><glyph d="M25 -27l76 24q22 -80 83.5 -126t147.5 -46q85 0 134 28t49 77q0 34 -26.5 59.5t-68.5 42t-93 32t-102 34.5t-93 44t-68.5 67t-26.5 97q0 76 49 123t141 60q-38 29 -38 85q0 84 74.5 134.5t191.5 50.5q112 0 181 -51t104 -159l-77 -20q-30 84 -80.5 119.5t-138.5 35.5 q-71 0 -120.5 -30t-49.5 -74q0 -33 35.5 -58t88.5 -40t115.5 -37t115.5 -47.5t88.5 -74t35.5 -113.5q0 -79 -50 -126.5t-143 -56.5q40 -40 40 -90q0 -89 -69.5 -138t-193.5 -49q-119 0 -203 60t-109 163zM271 420q-65 0 -107 -33t-42 -83q0 -49 44 -90.5t108 -65.5 t126.5 -37.5t106.5 -13.5q75 0 118 30t43 82q0 90 -117.5 150.5t-279.5 60.5z" glyph-name="section" horiz-adv-x="778" unicode="§"/><glyph d="M20 625v106h79v-106h-79zM142 625v106h78v-106h-78z" glyph-name="dieresis" horiz-adv-x="241" unicode="¨"/><glyph d="M284 376q0 -63 33 -102.5t86 -39.5q44 0 76 29t39 78l39 -11q-11 -64 -51.5 -99.5t-101.5 -35.5q-73 0 -118 49.5t-45 130.5q0 82 44.5 131t118.5 49q61 0 101.5 -35t51.5 -99l-39 -10q-8 48 -39 77t-76 29q-53 0 -86 -39.5t-33 -101.5zM25 375q0 170 107.5 277.5 t277.5 107.5t277.5 -107.5t107.5 -277.5t-107.5 -277.5t-277.5 -107.5t-277.5 108t-107.5 277zM71 376q0 -152 94 -247t246 -95q151 0 244.5 95t93.5 247q0 150 -94 245t-244 95q-152 0 -246 -94.5t-94 -245.5z" glyph-name="copyright" horiz-adv-x="821" unicode="©"/><glyph d="M135 765q42 0 67 -21.5t25 -56.5v-165h-32v49q-27 -53 -92 -53q-39 0 -61 18.5t-22 52.5q0 36 27 55t59.5 21t60 6t28.5 13q-2 22 -19 35.5t-46 13.5q-43 0 -73 -44l-29 9q35 67 107 67zM195 625v26q-6 -6 -29.5 -9.5t-47 -5.5t-43 -13t-19.5 -32q0 -41 54 -41 q37 0 61 21t24 54z" glyph-name="ordfeminine" horiz-adv-x="248" unicode="ª"/><glyph d="M20 280l137 280h80l-137 -280l137 -280h-80zM173 280l137 280h80l-137 -280l137 -280h-80z" glyph-name="guillemotleft" horiz-adv-x="410" unicode="«"/><glyph d="M452 238v207h-432v67h500v-274h-68z" glyph-name="logicalnot" horiz-adv-x="541" unicode="¬"/><glyph glyph-name="uni00AD" horiz-adv-x="500" unicode="­"/><glyph d="M25 375q0 170 107.5 277.5t277.5 107.5t277.5 -107.5t107.5 -277.5t-107.5 -277.5t-277.5 -107.5t-277.5 108t-107.5 277zM276 199v353h144q54 0 86.5 -28t32.5 -74q0 -62 -59 -89q24 -8 37 -39l48 -120v-3h-40l-46 116q-10 25 -36 25h-129v-141h-38zM314 375h98 q41 0 64 19t23 53q0 33 -23 51.5t-64 18.5h-98v-142zM71 376q0 -155 93 -248.5t247 -93.5q153 0 245.5 93.5t92.5 248.5q0 153 -92.5 246.5t-245.5 93.5q-154 0 -247 -93.5t-93 -246.5z" glyph-name="registered" horiz-adv-x="821" unicode="®"/><glyph d="M20 737v64h500v-64h-500z" glyph-name="macron" horiz-adv-x="541" unicode="¯"/><glyph d="M20 642q0 53 34.5 88t87.5 35q54 0 88 -35t34 -88q0 -54 -34 -89t-88 -35t-88 35t-34 89zM62 642q0 -37 22.5 -60.5t57.5 -23.5t57.5 23.5t22.5 60.5q0 36 -22.5 59.5t-57.5 23.5t-57.5 -23.5t-22.5 -59.5z" glyph-name="degree" horiz-adv-x="285" unicode="°"/><glyph d="M40 125v64h400v-64h-400zM20 388v64h173v173h63v-173h174v-64h-174v-173h-63v173h-173z" glyph-name="plusminus" horiz-adv-x="461" unicode="±"/><glyph d="M255 674q0 -49 -51 -96l-121 -114h173v-35h-234v33l147 134q46 43 46 76q0 24 -18.5 40.5t-45.5 16.5q-63 0 -93 -66l-37 9q41 93 131 93q47 0 75 -25t28 -66z" glyph-name="uni00B2" horiz-adv-x="277" unicode="²"/><glyph d="M155 602h-23l-23 20l110 102h-179v36h229v-35l-99 -96q47 -3 75.5 -28.5t28.5 -65.5q0 -52 -31.5 -81.5t-87.5 -29.5q-101 0 -135 102l39 10q28 -76 94 -76q36 0 57.5 19.5t21.5 51.5t-21 51.5t-56 19.5z" glyph-name="uni00B3" horiz-adv-x="294" unicode="³"/><glyph d="M60 525h-40l77 240h85z" glyph-name="acute" horiz-adv-x="203" unicode="´"/><glyph d="M387 220q-357 0 -357 265t349 265h473v-69h-93v-911h-80v911h-212v-911h-80v450z" glyph-name="paragraph" horiz-adv-x="887" unicode="¶"/><glyph d="M25 301v106h79v-106h-79z" glyph-name="periodcentered" horiz-adv-x="129" unicode="·"/><glyph d="M20 -172l35 37q16 -37 58 -37q44 0 44 42q0 20 -13.5 32t-29.5 17.5t-29.5 26t-13.5 54.5h46q0 -22 14.5 -37t31.5 -22.5t31.5 -25.5t14.5 -47q0 -39 -25 -61t-69 -22q-55 0 -95 43z" glyph-name="cedilla" horiz-adv-x="230" unicode="¸"/><glyph d="M59 701h-39v24q45 0 48 30h29v-326h-38v272z" glyph-name="uni00B9" horiz-adv-x="117" unicode="¹"/><glyph d="M20 642q0 55 26.5 89t70.5 34t70.5 -33.5t26.5 -89.5t-26.5 -90t-70.5 -34q-43 0 -70 34t-27 90zM56 642q0 -44 17 -69t46 -25t44.5 24.5t15.5 69.5q0 44 -15.5 68.5t-44.5 24.5t-46 -25t-17 -68z" glyph-name="ordmasculine" horiz-adv-x="235" unicode="º"/><glyph d="M100 560l137 -280l-137 -280h-80l137 280l-137 280h80zM253 560l137 -280l-137 -280h-80l137 280l-137 280h80z" glyph-name="guillemotright" horiz-adv-x="410" unicode="»"/><glyph d="M299 75v32l159 219h45v-218h40v-33h-40v-75h-37v75h-167zM20 -10l384 770h58l-384 -770h-58zM65 696h-39v24q45 0 48 30h29v-326h-38v272zM334 108h132v179z" glyph-name="onequarter" horiz-adv-x="563" unicode="¼"/><glyph d="M23 -10l384 770h57l-384 -770h-57zM544 255q0 -49 -51 -96l-121 -114h173v-35h-234v33l147 134q46 43 46 76q0 24 -18.5 40.5t-45.5 16.5q-63 0 -93 -66l-37 9q41 93 131 93q47 0 75 -25t28 -66zM63 697h-40v23q45 0 48 30h29v-326h-37v273z" glyph-name="onehalf" horiz-adv-x="567" unicode="½"/><glyph d="M178 -10h-57l384 770h57zM544 287v-179h-131zM155 593h-23l-23 20l110 102h-179v36h229v-35l-99 -96q47 -3 75.5 -28.5t28.5 -65.5q0 -52 -31.5 -81.5t-87.5 -29.5q-101 0 -135 102l39 10q28 -76 94 -76q36 0 57.5 19.5t21.5 51.5t-21 51.5t-56 19.5zM544 0h37v76h41v32 h-41v218h-45l-159 -219v-31h167v-76z" glyph-name="threequarters" horiz-adv-x="642" unicode="¾"/><glyph d="M111 14q0 -64 41 -101.5t111 -37.5q65 0 111.5 37t88.5 121l75 -25q-95 -208 -280 -208q-103 0 -167.5 57.5t-64.5 147.5q0 48 13.5 84.5t35.5 59t48.5 41t53.5 36t49 38.5t35.5 54t13.5 77v12h80q0 -59 -18 -104.5t-45 -71t-59 -50.5t-59 -44.5t-45 -51t-18 -71.5z M354 560v-105h-78v105h78z" glyph-name="questiondown" horiz-adv-x="563" unicode="¿"/><glyph d="M6 0l280 750h82l280 -750h-86l-63 173h-344l-63 -173h-86zM181 245h292l-146 401zM407 817h-40l-122 240h85z" glyph-name="Agrave" horiz-adv-x="653" unicode="À"/><glyph d="M6 0l280 750h82l280 -750h-86l-63 173h-344l-63 -173h-86zM181 245h292l-146 401zM300 817h-40l77 240h85z" glyph-name="Aacute" horiz-adv-x="653" unicode="Á"/><glyph d="M6 0l280 750h82l280 -750h-86l-63 173h-344l-63 -173h-86zM181 245h292l-146 401zM194 817l120 240h55l120 -240h-55l-92 181l-93 -181h-55z" glyph-name="Acircumflex" horiz-adv-x="653" unicode="Â"/><glyph d="M6 0l280 750h82l280 -750h-86l-63 173h-344l-63 -173h-86zM181 245h292l-146 401zM421 866q34 0 49 44.5t15 147.5h62q0 -128 -28.5 -186t-91.5 -58q-37 0 -60.5 20t-34 48.5t-19 57t-23.5 48.5t-39 20q-40 0 -61 -50.5t-21 -141.5h-62q0 119 34.5 181.5t99.5 62.5 q42 0 68.5 -30.5t36 -66.5t28 -66.5t47.5 -30.5z" glyph-name="Atilde" horiz-adv-x="653" unicode="Ã"/><glyph d="M6 0l280 750h82l280 -750h-86l-63 173h-344l-63 -173h-86zM181 245h292l-146 401zM226 845v106h79v-106h-79zM348 845v106h78v-106h-78z" glyph-name="Adieresis" horiz-adv-x="653" unicode="Ä"/><glyph d="M6 0l280 750h82l280 -750h-86l-63 173h-344l-63 -173h-86zM181 245h292l-146 401zM213 934q0 53 34.5 88t87.5 35q54 0 88 -35t34 -88q0 -54 -34 -89t-88 -35t-88 35t-34 89zM255 934q0 -37 22.5 -60.5t57.5 -23.5t57.5 23.5t22.5 60.5q0 36 -22.5 59.5t-57.5 23.5 t-57.5 -23.5t-22.5 -59.5z" glyph-name="Aring" horiz-adv-x="653" unicode="Å"/><glyph d="M20 0l525 750h512v-74h-425v-266h405v-71h-405v-265h425v-74h-505v156h-334l-107 -156h-91zM267 227h285v412z" glyph-name="AE" horiz-adv-x="1077" unicode="Æ"/><glyph d="M283 -157l35 37q16 -37 58 -37q44 0 44 42q0 18 -11.5 29.5t-25.5 17t-28.5 20.5t-18.5 39q-148 8 -236.5 112t-88.5 272q0 174 95 279.5t252 105.5q130 0 215.5 -75t111.5 -212l-77 -23q-17 107 -85.5 171t-166.5 64q-115 0 -187.5 -86t-72.5 -223q0 -138 72.5 -224.5 t187.5 -86.5q98 0 166.5 64t85.5 171l77 -23q-24 -129 -102.5 -204t-197.5 -82q6 -13 21.5 -23.5t29.5 -18t25 -24.5t11 -42q0 -39 -25 -61t-69 -22q-55 0 -95 43z" glyph-name="Ccedilla" horiz-adv-x="695" unicode="Ç"/><glyph d="M21 0v750h504v-74h-424v-265h404v-73h-404v-264h424v-74h-504zM353 817h-40l-122 240h85z" glyph-name="Egrave" horiz-adv-x="530" unicode="È"/><glyph d="M21 0v750h504v-74h-424v-265h404v-73h-404v-264h424v-74h-504zM246 817h-40l77 240h85z" glyph-name="Eacute" horiz-adv-x="530" unicode="É"/><glyph d="M21 0v750h504v-74h-424v-265h404v-73h-404v-264h424v-74h-504zM140 817l120 240h55l120 -240h-55l-92 181l-93 -181h-55z" glyph-name="Ecircumflex" horiz-adv-x="530" unicode="Ê"/><glyph d="M21 0v750h504v-74h-424v-265h404v-73h-404v-264h424v-74h-504zM172 845v106h79v-106h-79zM294 845v106h78v-106h-78z" glyph-name="Edieresis" horiz-adv-x="530" unicode="Ë"/><glyph d="M20 0v750h80v-750h-80zM141 817h-40l-122 240h85z" glyph-name="Igrave" horiz-adv-x="120" unicode="Ì"/><glyph d="M20 0v750h80v-750h-80zM34 817h-40l77 240h85z" glyph-name="Iacute" horiz-adv-x="120" unicode="Í"/><glyph d="M20 0v750h80v-750h-80zM-72 817l120 240h55l120 -240h-55l-92 181l-93 -181h-55z" glyph-name="Icircumflex" horiz-adv-x="120" unicode="Î"/><glyph d="M20 0v750h80v-750h-80zM-39 845v106h79v-106h-79zM83 845v106h78v-106h-78z" glyph-name="Idieresis" horiz-adv-x="120" unicode="Ï"/><glyph d="M46 0v393h-41v64h41v293h272q160 0 251 -99.5t91 -275.5t-91 -275.5t-251 -99.5h-272zM126 75h200q114 0 181.5 79.5t67.5 221.5t-67.5 220.5t-182.5 78.5h-199v-218h279v-64h-279v-318z" glyph-name="Eth" horiz-adv-x="670" unicode="Ð"/><glyph d="M20 0v750h105l433 -657v657h80v-750h-105l-433 656v-656h-80zM420 866q34 0 49 44.5t15 147.5h62q0 -128 -28.5 -186t-91.5 -58q-37 0 -60.5 20t-34 48.5t-19 57t-23.5 48.5t-39 20q-40 0 -61 -50.5t-21 -141.5h-62q0 119 34.5 181.5t99.5 62.5q42 0 68.5 -30.5t36 -66.5 t28 -66.5t47.5 -30.5z" glyph-name="Ntilde" horiz-adv-x="658" unicode="Ñ"/><glyph d="M11 375q0 173 94 279t249 106q154 0 247.5 -106t93.5 -279t-93.5 -279t-247.5 -106q-155 0 -249 106t-94 279zM96 376q0 -149 74 -230t184 -81q109 0 182.5 81t73.5 230q0 147 -74 228t-182 81q-110 0 -184 -80.5t-74 -228.5zM438 817h-40l-122 240h85z" glyph-name="Ograve" horiz-adv-x="705" unicode="Ò"/><glyph d="M11 375q0 173 94 279t249 106q154 0 247.5 -106t93.5 -279t-93.5 -279t-247.5 -106q-155 0 -249 106t-94 279zM96 376q0 -149 74 -230t184 -81q109 0 182.5 81t73.5 230q0 147 -74 228t-182 81q-110 0 -184 -80.5t-74 -228.5zM331 817h-40l77 240h85z" glyph-name="Oacute" horiz-adv-x="705" unicode="Ó"/><glyph d="M11 375q0 173 94 279t249 106q154 0 247.5 -106t93.5 -279t-93.5 -279t-247.5 -106q-155 0 -249 106t-94 279zM96 376q0 -149 74 -230t184 -81q109 0 182.5 81t73.5 230q0 147 -74 228t-182 81q-110 0 -184 -80.5t-74 -228.5zM225 817l120 240h55l120 -240h-55l-92 181 l-93 -181h-55z" glyph-name="Ocircumflex" horiz-adv-x="705" unicode="Ô"/><glyph d="M11 375q0 173 94 279t249 106q154 0 247.5 -106t93.5 -279t-93.5 -279t-247.5 -106q-155 0 -249 106t-94 279zM96 376q0 -149 74 -230t184 -81q109 0 182.5 81t73.5 230q0 147 -74 228t-182 81q-110 0 -184 -80.5t-74 -228.5zM452 866q34 0 49 44.5t15 147.5h62 q0 -128 -28.5 -186t-91.5 -58q-37 0 -60.5 20t-34 48.5t-19 57t-23.5 48.5t-39 20q-40 0 -61 -50.5t-21 -141.5h-62q0 119 34.5 181.5t99.5 62.5q42 0 68.5 -30.5t36 -66.5t28 -66.5t47.5 -30.5z" glyph-name="Otilde" horiz-adv-x="705" unicode="Õ"/><glyph d="M11 375q0 173 94 279t249 106q154 0 247.5 -106t93.5 -279t-93.5 -279t-247.5 -106q-155 0 -249 106t-94 279zM96 376q0 -149 74 -230t184 -81q109 0 182.5 81t73.5 230q0 147 -74 228t-182 81q-110 0 -184 -80.5t-74 -228.5zM257 845v106h79v-106h-79zM379 845v106h78 v-106h-78z" glyph-name="Odieresis" horiz-adv-x="705" unicode="Ö"/><glyph d="M63 205l-43 43l127 128l-126 126l43 44l127 -127l126 127l44 -44l-127 -126l128 -128l-44 -43l-127 127z" glyph-name="multiply" horiz-adv-x="382" unicode="×"/><glyph d="M10 375q0 173 94.5 279t248.5 106q96 0 170 -44l82 135h80l-106 -174q116 -108 116 -302q0 -173 -94 -279t-248 -106q-95 0 -169 43l-85 -138h-80l109 177q-118 108 -118 303zM95 376q0 -148 76 -232l311 505q-64 40 -132 40q-106 0 -180.5 -92t-74.5 -221zM225 100 q65 -39 131 -39q106 0 180 93t74 222q0 147 -74 229z" glyph-name="Oslash" horiz-adv-x="705" unicode="Ø"/><glyph d="M625 332q0 -162 -80.5 -252t-226.5 -90t-226.5 90t-80.5 252v418h80v-418q0 -267 227 -267t227 267v418h80v-418zM398 818h-40l-122 240h85z" glyph-name="Ugrave" horiz-adv-x="635" unicode="Ù"/><glyph d="M625 332q0 -162 -80.5 -252t-226.5 -90t-226.5 90t-80.5 252v418h80v-418q0 -267 227 -267t227 267v418h80v-418zM291 818h-40l77 240h85z" glyph-name="Uacute" horiz-adv-x="635" unicode="Ú"/><glyph d="M625 332q0 -162 -80.5 -252t-226.5 -90t-226.5 90t-80.5 252v418h80v-418q0 -267 227 -267t227 267v418h80v-418zM185 818l120 240h55l120 -240h-55l-92 181l-93 -181h-55z" glyph-name="Ucircumflex" horiz-adv-x="635" unicode="Û"/><glyph d="M625 332q0 -162 -80.5 -252t-226.5 -90t-226.5 90t-80.5 252v418h80v-418q0 -267 227 -267t227 267v418h80v-418zM217 846v106h79v-106h-79zM339 846v106h78v-106h-78z" glyph-name="Udieresis" horiz-adv-x="635" unicode="Ü"/><glyph d="M268 335l-263 415h93l210 -348l210 348h93l-263 -415v-335h-80v335zM281 817h-40l77 240h85z" glyph-name="Yacute" horiz-adv-x="616" unicode="Ý"/><glyph d="M35 0v750h80v-110h175q143 0 224 -70.5t81 -194.5t-81 -194.5t-224 -70.5h-175v-110h-80zM115 184h188q92 0 149.5 53.5t57.5 138.5q0 84 -57.5 137t-149.5 53h-188v-382z" glyph-name="Thorn" horiz-adv-x="620" unicode="Þ"/><glyph d="M115 463v-463h-80v481q0 133 72.5 206t207.5 73q118 0 186.5 -53.5t68.5 -144.5q0 -129 -140 -168q67 -9 108.5 -63t41.5 -134q0 -86 -47.5 -141.5t-122.5 -55.5h-166v75h108q77 0 110 33.5t33 111.5q0 71 -40 105t-125 34h-86v63h97q62 0 103 34t41 86q0 67 -45.5 105 t-125.5 38q-96 0 -147.5 -57.5t-51.5 -164.5z" glyph-name="germandbls" horiz-adv-x="605" unicode="ß"/><glyph d="M279 570q98 0 157 -50.5t59 -133.5v-386h-73v114q-60 -124 -221 -124q-87 0 -138.5 43.5t-51.5 120.5q0 59 30 99t75.5 56t98.5 26t98.5 12t76.5 9.5t32 23.5q-2 52 -42.5 85t-105.5 33q-58 0 -99 -24.5t-80 -82.5l-66 20q81 159 250 159zM422 241v64 q-14 -15 -70.5 -22.5t-113 -12t-103 -31.5t-46.5 -78q0 -46 34 -72.5t93 -26.5q92 0 149 49.5t57 129.5zM333 627h-40l-122 240h85z" glyph-name="agrave" horiz-adv-x="505" unicode="à"/><glyph d="M279 570q98 0 157 -50.5t59 -133.5v-386h-73v114q-60 -124 -221 -124q-87 0 -138.5 43.5t-51.5 120.5q0 59 30 99t75.5 56t98.5 26t98.5 12t76.5 9.5t32 23.5q-2 52 -42.5 85t-105.5 33q-58 0 -99 -24.5t-80 -82.5l-66 20q81 159 250 159zM422 241v64 q-14 -15 -70.5 -22.5t-113 -12t-103 -31.5t-46.5 -78q0 -46 34 -72.5t93 -26.5q92 0 149 49.5t57 129.5zM226 627h-40l77 240h85z" glyph-name="aacute" horiz-adv-x="505" unicode="á"/><glyph d="M279 570q98 0 157 -50.5t59 -133.5v-386h-73v114q-60 -124 -221 -124q-87 0 -138.5 43.5t-51.5 120.5q0 59 30 99t75.5 56t98.5 26t98.5 12t76.5 9.5t32 23.5q-2 52 -42.5 85t-105.5 33q-58 0 -99 -24.5t-80 -82.5l-66 20q81 159 250 159zM422 241v64 q-14 -15 -70.5 -22.5t-113 -12t-103 -31.5t-46.5 -78q0 -46 34 -72.5t93 -26.5q92 0 149 49.5t57 129.5zM120 627l120 240h55l120 -240h-55l-92 181l-93 -181h-55z" glyph-name="acircumflex" horiz-adv-x="505" unicode="â"/><glyph d="M279 570q98 0 157 -50.5t59 -133.5v-386h-73v114q-60 -124 -221 -124q-87 0 -138.5 43.5t-51.5 120.5q0 59 30 99t75.5 56t98.5 26t98.5 12t76.5 9.5t32 23.5q-2 52 -42.5 85t-105.5 33q-58 0 -99 -24.5t-80 -82.5l-66 20q81 159 250 159zM422 241v64 q-14 -15 -70.5 -22.5t-113 -12t-103 -31.5t-46.5 -78q0 -46 34 -72.5t93 -26.5q92 0 149 49.5t57 129.5zM347 676q34 0 49 44.5t15 147.5h62q0 -128 -28.5 -186t-91.5 -58q-37 0 -60.5 20t-34 48.5t-19 57t-23.5 48.5t-39 20q-40 0 -61 -50.5t-21 -141.5h-62 q0 119 34.5 181.5t99.5 62.5q42 0 68.5 -30.5t36 -66.5t28 -66.5t47.5 -30.5z" glyph-name="atilde" horiz-adv-x="505" unicode="ã"/><glyph d="M279 570q98 0 157 -50.5t59 -133.5v-386h-73v114q-60 -124 -221 -124q-87 0 -138.5 43.5t-51.5 120.5q0 59 30 99t75.5 56t98.5 26t98.5 12t76.5 9.5t32 23.5q-2 52 -42.5 85t-105.5 33q-58 0 -99 -24.5t-80 -82.5l-66 20q81 159 250 159zM422 241v64 q-14 -15 -70.5 -22.5t-113 -12t-103 -31.5t-46.5 -78q0 -46 34 -72.5t93 -26.5q92 0 149 49.5t57 129.5zM152 655v106h79v-106h-79zM274 655v106h78v-106h-78z" glyph-name="adieresis" horiz-adv-x="505" unicode="ä"/><glyph d="M279 570q98 0 157 -50.5t59 -133.5v-386h-73v114q-60 -124 -221 -124q-87 0 -138.5 43.5t-51.5 120.5q0 59 30 99t75.5 56t98.5 26t98.5 12t76.5 9.5t32 23.5q-2 52 -42.5 85t-105.5 33q-58 0 -99 -24.5t-80 -82.5l-66 20q81 159 250 159zM422 241v64 q-14 -15 -70.5 -22.5t-113 -12t-103 -31.5t-46.5 -78q0 -46 34 -72.5t93 -26.5q92 0 149 49.5t57 129.5zM139 744q0 53 34.5 88t87.5 35q54 0 88 -35t34 -88q0 -54 -34 -89t-88 -35t-88 35t-34 89zM181 744q0 -37 22.5 -60.5t57.5 -23.5t57.5 23.5t22.5 60.5 q0 36 -22.5 59.5t-57.5 23.5t-57.5 -23.5t-22.5 -59.5z" glyph-name="aring" horiz-adv-x="505" unicode="å"/><glyph d="M294 570q72 0 124 -28.5t74 -79.5q75 108 216 108q121 0 190 -83t69 -230h-450q8 -86 61.5 -140.5t133.5 -54.5q66 0 112 39.5t65 112.5l72 -22q-24 -94 -92 -148t-162 -54q-73 0 -131.5 33t-92.5 91q-32 -60 -96.5 -92t-153.5 -32q-93 0 -150 43t-57 116q0 72 42 115.5 t102.5 58t120.5 20.5t102.5 13.5t43.5 25.5q-1 54 -41 87t-103 33t-104.5 -24.5t-79.5 -84.5l-65 20q85 157 250 157zM437 241v82q-11 -13 -51 -18.5t-86 -9.5t-91 -14t-75 -38t-30 -75q0 -52 33.5 -81t91.5 -29q93 0 150.5 50.5t57.5 132.5zM517 308h368q-10 92 -56.5 143 t-120.5 51q-78 0 -131 -54t-60 -140z" glyph-name="ae" horiz-adv-x="992" unicode="æ"/><glyph d="M203 -157l35 37q16 -37 58 -37q44 0 44 42q0 18 -11.5 29.5t-25.5 17t-28.5 20.5t-18.5 39q-110 8 -177.5 88t-67.5 201q0 128 74.5 209t194.5 81q95 0 163 -54t91 -148l-74 -14q-20 68 -67 106t-113 38q-84 0 -137.5 -60.5t-53.5 -157.5t53.5 -157.5t137.5 -60.5 q66 0 113 38t67 106l74 -14q-22 -88 -82.5 -141t-146.5 -60q6 -13 21.5 -23.5t29.5 -18t25 -24.5t11 -42q0 -39 -25 -61t-69 -22q-55 0 -95 43z" glyph-name="ccedilla" horiz-adv-x="544" unicode="ç"/><glyph d="M540 257h-450q8 -86 61.5 -140.5t134.5 -54.5q66 0 112 39.5t65 112.5l71 -22q-23 -94 -91 -148t-163 -54q-119 0 -194 82t-75 210t75 208t196 80t189.5 -83t68.5 -230zM93 318h364q-13 86 -59 133t-116 47q-75 0 -126.5 -50t-62.5 -130zM356 627h-40l-122 240h85z" glyph-name="egrave" horiz-adv-x="550" unicode="è"/><glyph d="M540 257h-450q8 -86 61.5 -140.5t134.5 -54.5q66 0 112 39.5t65 112.5l71 -22q-23 -94 -91 -148t-163 -54q-119 0 -194 82t-75 210t75 208t196 80t189.5 -83t68.5 -230zM93 318h364q-13 86 -59 133t-116 47q-75 0 -126.5 -50t-62.5 -130zM249 627h-40l77 240h85z" glyph-name="eacute" horiz-adv-x="550" unicode="é"/><glyph d="M540 257h-450q8 -86 61.5 -140.5t134.5 -54.5q66 0 112 39.5t65 112.5l71 -22q-23 -94 -91 -148t-163 -54q-119 0 -194 82t-75 210t75 208t196 80t189.5 -83t68.5 -230zM93 318h364q-13 86 -59 133t-116 47q-75 0 -126.5 -50t-62.5 -130zM143 627l120 240h55l120 -240 h-55l-92 181l-93 -181h-55z" glyph-name="ecircumflex" horiz-adv-x="550" unicode="ê"/><glyph d="M540 257h-450q8 -86 61.5 -140.5t134.5 -54.5q66 0 112 39.5t65 112.5l71 -22q-23 -94 -91 -148t-163 -54q-119 0 -194 82t-75 210t75 208t196 80t189.5 -83t68.5 -230zM93 318h364q-13 86 -59 133t-116 47q-75 0 -126.5 -50t-62.5 -130zM175 655v106h79v-106h-79z M297 655v106h78v-106h-78z" glyph-name="edieresis" horiz-adv-x="550" unicode="ë"/><glyph d="M20 0v560h74v-560h-74zM137 627h-40l-122 240h85z" glyph-name="igrave" horiz-adv-x="114" unicode="ì"/><glyph d="M20 0v560h74v-560h-74zM30 627h-40l77 240h85z" glyph-name="iacute" horiz-adv-x="114" unicode="í"/><glyph d="M20 0v560h74v-560h-74zM-76 627l120 240h55l120 -240h-55l-92 181l-93 -181h-55z" glyph-name="icircumflex" horiz-adv-x="114" unicode="î"/><glyph d="M20 0v560h74v-560h-74zM-44 655v106h79v-106h-79zM78 655v106h78v-106h-78z" glyph-name="idieresis" horiz-adv-x="114" unicode="ï"/><glyph d="M214 750h100q42 -32 65 -51l97 61l30 -41l-88 -56q88 -82 127.5 -161t39.5 -172q0 -159 -77 -249.5t-211 -90.5q-122 0 -194.5 73.5t-72.5 198.5q0 106 75.5 177t188.5 71q137 0 206 -115q0 103 -136 233l-111 -71l-30 41l102 65q-48 42 -111 87zM497 255q0 79 -54 133 t-135 54q-83 0 -138 -55.5t-55 -139.5t52 -136.5t131 -52.5q83 0 141 57.5t58 139.5z" glyph-name="eth" horiz-adv-x="615" unicode="ð"/><glyph d="M94 560v-117q34 60 90 93.5t127 33.5q112 0 173 -62.5t61 -176.5v-331h-73v295q0 99 -43.5 151t-125.5 52q-93 0 -151 -60.5t-58 -155.5v-282h-73v560h73zM373 676q34 0 49 44.5t15 147.5h62q0 -128 -28.5 -186t-91.5 -58q-37 0 -60.5 20t-34 48.5t-19 57t-23.5 48.5 t-39 20q-40 0 -61 -50.5t-21 -141.5h-62q0 119 34.5 181.5t99.5 62.5q42 0 68.5 -30.5t36 -66.5t28 -66.5t47.5 -30.5z" glyph-name="ntilde" horiz-adv-x="555" unicode="ñ"/><glyph d="M282 -10q-118 0 -194.5 83t-76.5 211q0 127 74.5 206.5t193.5 79.5t192.5 -79.5t73.5 -208.5t-73 -210.5t-190 -81.5zM280 62q81 0 134 62.5t53 159.5q0 95 -52 154.5t-135 59.5q-84 0 -137.5 -60.5t-53.5 -153.5q0 -95 54.5 -158.5t136.5 -63.5zM358 627h-40l-122 240 h85z" glyph-name="ograve" horiz-adv-x="555" unicode="ò"/><glyph d="M282 -10q-118 0 -194.5 83t-76.5 211q0 127 74.5 206.5t193.5 79.5t192.5 -79.5t73.5 -208.5t-73 -210.5t-190 -81.5zM280 62q81 0 134 62.5t53 159.5q0 95 -52 154.5t-135 59.5q-84 0 -137.5 -60.5t-53.5 -153.5q0 -95 54.5 -158.5t136.5 -63.5zM251 627h-40l77 240h85z " glyph-name="oacute" horiz-adv-x="555" unicode="ó"/><glyph d="M282 -10q-118 0 -194.5 83t-76.5 211q0 127 74.5 206.5t193.5 79.5t192.5 -79.5t73.5 -208.5t-73 -210.5t-190 -81.5zM280 62q81 0 134 62.5t53 159.5q0 95 -52 154.5t-135 59.5q-84 0 -137.5 -60.5t-53.5 -153.5q0 -95 54.5 -158.5t136.5 -63.5zM145 627l120 240h55 l120 -240h-55l-92 181l-93 -181h-55z" glyph-name="ocircumflex" horiz-adv-x="555" unicode="ô"/><glyph d="M282 -10q-118 0 -194.5 83t-76.5 211q0 127 74.5 206.5t193.5 79.5t192.5 -79.5t73.5 -208.5t-73 -210.5t-190 -81.5zM280 62q81 0 134 62.5t53 159.5q0 95 -52 154.5t-135 59.5q-84 0 -137.5 -60.5t-53.5 -153.5q0 -95 54.5 -158.5t136.5 -63.5zM372 676q34 0 49 44.5 t15 147.5h62q0 -128 -28.5 -186t-91.5 -58q-37 0 -60.5 20t-34 48.5t-19 57t-23.5 48.5t-39 20q-40 0 -61 -50.5t-21 -141.5h-62q0 119 34.5 181.5t99.5 62.5q42 0 68.5 -30.5t36 -66.5t28 -66.5t47.5 -30.5z" glyph-name="otilde" horiz-adv-x="555" unicode="õ"/><glyph d="M282 -10q-118 0 -194.5 83t-76.5 211q0 127 74.5 206.5t193.5 79.5t192.5 -79.5t73.5 -208.5t-73 -210.5t-190 -81.5zM280 62q81 0 134 62.5t53 159.5q0 95 -52 154.5t-135 59.5q-84 0 -137.5 -60.5t-53.5 -153.5q0 -95 54.5 -158.5t136.5 -63.5zM177 655v106h79v-106 h-79zM299 655v106h78v-106h-78z" glyph-name="odieresis" horiz-adv-x="555" unicode="ö"/><glyph d="M20 343v64h450v-64h-450zM206 144v106h79v-106h-79zM206 500v106h79v-106h-79z" glyph-name="divide" horiz-adv-x="491" unicode="÷"/><glyph d="M296 -10q-77 0 -140 38l-91 -138h-60l111 168q-91 85 -91 226q0 127 74.5 206.5t193.5 79.5q74 0 136 -35l90 135h60l-108 -164q88 -80 88 -224q0 -129 -73 -210.5t-190 -81.5zM159 124l230 348q-47 28 -95 28q-78 0 -134.5 -63t-56.5 -154q0 -95 56 -159zM198 92 q48 -32 98 -32q76 0 130.5 66.5t54.5 157.5q0 97 -53 156z" glyph-name="oslash" horiz-adv-x="584" unicode="ø"/><glyph d="M461 0v118q-33 -60 -89.5 -94t-126.5 -34q-112 0 -173.5 62.5t-61.5 176.5v331h74v-295q0 -99 43 -151t125 -52q93 0 151 60.5t58 155.5v282h74v-560h-74zM353 631h-40l-122 240h85z" glyph-name="ugrave" horiz-adv-x="555" unicode="ù"/><glyph d="M461 0v118q-33 -60 -89.5 -94t-126.5 -34q-112 0 -173.5 62.5t-61.5 176.5v331h74v-295q0 -99 43 -151t125 -52q93 0 151 60.5t58 155.5v282h74v-560h-74zM246 631h-40l77 240h85z" glyph-name="uacute" horiz-adv-x="555" unicode="ú"/><glyph d="M461 0v118q-33 -60 -89.5 -94t-126.5 -34q-112 0 -173.5 62.5t-61.5 176.5v331h74v-295q0 -99 43 -151t125 -52q93 0 151 60.5t58 155.5v282h74v-560h-74zM140 631l120 240h55l120 -240h-55l-92 181l-93 -181h-55z" glyph-name="ucircumflex" horiz-adv-x="555" unicode="û"/><glyph d="M461 0v118q-33 -60 -89.5 -94t-126.5 -34q-112 0 -173.5 62.5t-61.5 176.5v331h74v-295q0 -99 43 -151t125 -52q93 0 151 60.5t58 155.5v282h74v-560h-74zM172 659v106h79v-106h-79zM294 659v106h78v-106h-78z" glyph-name="udieresis" horiz-adv-x="555" unicode="ü"/><glyph d="M278 -250q-109 0 -178 43t-90 124l67 25q21 -63 68.5 -91.5t128.5 -28.5q193 0 193 192v104q-33 -60 -89.5 -94t-127.5 -34q-112 0 -173.5 62.5t-61.5 176.5v331h74v-295q0 -99 43 -151t125 -52q93 0 151.5 60.5t58.5 155.5v282h73v-556q0 -123 -67 -188.5t-195 -65.5z M249 627h-40l77 240h85z" glyph-name="yacute" horiz-adv-x="560" unicode="ý"/><glyph d="M109 750v-303q31 58 83.5 90.5t117.5 32.5q109 0 178.5 -83t69.5 -211q0 -127 -68.5 -206.5t-177.5 -79.5q-67 0 -119.5 31.5t-83.5 88.5v-350h-74v990h74zM291 498q-79 0 -130.5 -62.5t-51.5 -159.5q0 -95 50.5 -154.5t131.5 -59.5q82 0 135 60.5t53 154.5t-53.5 157.5 t-134.5 63.5z" glyph-name="thorn" horiz-adv-x="583" unicode="þ"/><glyph d="M278 -250q-109 0 -178 43t-90 124l67 25q21 -63 68.5 -91.5t128.5 -28.5q193 0 193 192v104q-33 -60 -89.5 -94t-127.5 -34q-112 0 -173.5 62.5t-61.5 176.5v331h74v-295q0 -99 43 -151t125 -52q93 0 151.5 60.5t58.5 155.5v282h73v-556q0 -123 -67 -188.5t-195 -65.5z M176 655v106h79v-106h-79zM298 655v106h78v-106h-78z" glyph-name="ydieresis" horiz-adv-x="560" unicode="ÿ"/><glyph d="M21 0l280 750h82l280 -750h-86l-63 173h-344l-63 -173h-86zM196 245h292l-146 401zM91 847v64h500v-64h-500z" glyph-name="Amacron" horiz-adv-x="683" unicode="Ā"/><glyph d="M294 570q98 0 157 -50.5t59 -133.5v-386h-73v114q-60 -124 -221 -124q-87 0 -138.5 43.5t-51.5 120.5q0 59 30 99t75.5 56t98.5 26t98.5 12t76.5 9.5t32 23.5q-2 52 -42.5 85t-105.5 33q-58 0 -99 -24.5t-80 -82.5l-66 20q81 159 250 159zM437 241v64 q-14 -15 -70.5 -22.5t-113 -12t-103 -31.5t-46.5 -78q0 -46 34 -72.5t93 -26.5q92 0 149 49.5t57 129.5zM17 657v64h500v-64h-500z" glyph-name="amacron" horiz-adv-x="535" unicode="ā"/><glyph d="M21 0l280 750h82l280 -750h-86l-63 173h-344l-63 -173h-86zM196 245h292l-146 401zM420 940h44q0 -60 -33 -95t-90 -35t-90 35.5t-33 94.5h44q0 -46 21.5 -68.5t58.5 -22.5q35 0 56.5 23t21.5 68z" glyph-name="Abreve" horiz-adv-x="683" unicode="Ă"/><glyph d="M294 570q98 0 157 -50.5t59 -133.5v-386h-73v114q-60 -124 -221 -124q-87 0 -138.5 43.5t-51.5 120.5q0 59 30 99t75.5 56t98.5 26t98.5 12t76.5 9.5t32 23.5q-2 52 -42.5 85t-105.5 33q-58 0 -99 -24.5t-80 -82.5l-66 20q81 159 250 159zM437 241v64 q-14 -15 -70.5 -22.5t-113 -12t-103 -31.5t-46.5 -78q0 -46 34 -72.5t93 -26.5q92 0 149 49.5t57 129.5zM346 750h44q0 -60 -33 -95t-90 -35t-90 35.5t-33 94.5h44q0 -46 21.5 -68.5t58.5 -22.5q35 0 56.5 23t21.5 68z" glyph-name="abreve" horiz-adv-x="535" unicode="ă"/><glyph d="M21 0l280 750h82l280 -750q-67 -40 -97.5 -71.5t-30.5 -61.5q0 -39 46 -39q43 0 55 36h43q-29 -74 -104 -74q-39 0 -61.5 20.5t-22.5 56.5q0 71 105 133l-19 1l-63 172h-344l-63 -173h-86zM196 245h292l-146 401z" glyph-name="Aogonek" horiz-adv-x="699" unicode="Ą"/><glyph d="M294 570q98 0 157 -50.5t59 -133.5v-386q-67 -40 -97 -71.5t-30 -61.5q0 -39 46 -39q43 0 55 36h43q-29 -74 -104 -74q-39 0 -61.5 20.5t-22.5 56.5q0 71 108 135l-10 1v111q-60 -124 -221 -124q-87 0 -138.5 43.5t-51.5 120.5q0 59 30 99t75.5 56t98.5 26t98.5 12 t76.5 9.5t32 23.5q-2 52 -42.5 85t-105.5 33q-58 0 -99 -24.5t-80 -82.5l-66 20q81 159 250 159zM437 241v64q-14 -15 -70.5 -22.5t-113 -12t-103 -31.5t-46.5 -78q0 -46 34 -72.5t93 -26.5q92 0 149 49.5t57 129.5z" glyph-name="aogonek" horiz-adv-x="552" unicode="ą"/><glyph d="M111 376q0 -138 72.5 -224.5t187.5 -86.5q98 0 166.5 64t85.5 171l77 -23q-26 -137 -111.5 -212t-215.5 -75q-157 0 -252 105.5t-95 279.5t95 279.5t252 105.5q130 0 215.5 -75t111.5 -212l-77 -23q-17 107 -85.5 171t-166.5 64q-115 0 -187.5 -86t-72.5 -223zM336 817 h-40l77 240h85z" glyph-name="Cacute" horiz-adv-x="725" unicode="Ć"/><glyph d="M26 280q0 128 74.5 209t194.5 81q95 0 163 -54t91 -148l-74 -14q-20 68 -67 106t-113 38q-84 0 -137.5 -60.5t-53.5 -157.5t53.5 -157.5t137.5 -60.5q66 0 113 38t67 106l74 -14q-23 -94 -91 -148t-163 -54q-120 0 -194.5 81t-74.5 209zM269 627h-40l77 240h85z" glyph-name="cacute" horiz-adv-x="574" unicode="ć"/><glyph d="M111 376q0 -138 72.5 -224.5t187.5 -86.5q98 0 166.5 64t85.5 171l77 -23q-26 -137 -111.5 -212t-215.5 -75q-157 0 -252 105.5t-95 279.5t95 279.5t252 105.5q130 0 215.5 -75t111.5 -212l-77 -23q-17 107 -85.5 171t-166.5 64q-115 0 -187.5 -86t-72.5 -223zM230 817 l120 240h55l120 -240h-55l-92 181l-93 -181h-55z" glyph-name="Ccircumflex" horiz-adv-x="725" unicode="Ĉ"/><glyph d="M26 280q0 128 74.5 209t194.5 81q95 0 163 -54t91 -148l-74 -14q-20 68 -67 106t-113 38q-84 0 -137.5 -60.5t-53.5 -157.5t53.5 -157.5t137.5 -60.5q66 0 113 38t67 106l74 -14q-23 -94 -91 -148t-163 -54q-120 0 -194.5 81t-74.5 209zM163 627l120 240h55l120 -240h-55 l-92 181l-93 -181h-55z" glyph-name="ccircumflex" horiz-adv-x="574" unicode="ĉ"/><glyph d="M111 376q0 -138 72.5 -224.5t187.5 -86.5q98 0 166.5 64t85.5 171l77 -23q-26 -137 -111.5 -212t-215.5 -75q-157 0 -252 105.5t-95 279.5t95 279.5t252 105.5q130 0 215.5 -75t111.5 -212l-77 -23q-17 107 -85.5 171t-166.5 64q-115 0 -187.5 -86t-72.5 -223zM323 831 v106h79v-106h-79z" glyph-name="Cdotaccent" horiz-adv-x="725" unicode="Ċ"/><glyph d="M26 280q0 128 74.5 209t194.5 81q95 0 163 -54t91 -148l-74 -14q-20 68 -67 106t-113 38q-84 0 -137.5 -60.5t-53.5 -157.5t53.5 -157.5t137.5 -60.5q66 0 113 38t67 106l74 -14q-23 -94 -91 -148t-163 -54q-120 0 -194.5 81t-74.5 209zM256 641v106h79v-106h-79z" glyph-name="cdotaccent" horiz-adv-x="574" unicode="ċ"/><glyph d="M111 376q0 -138 72.5 -224.5t187.5 -86.5q98 0 166.5 64t85.5 171l77 -23q-26 -137 -111.5 -212t-215.5 -75q-157 0 -252 105.5t-95 279.5t95 279.5t252 105.5q130 0 215.5 -75t111.5 -212l-77 -23q-17 107 -85.5 171t-166.5 64q-115 0 -187.5 -86t-72.5 -223zM336 817 l-120 240h54l93 -181l93 181h54l-120 -240h-54z" glyph-name="Ccaron" horiz-adv-x="725" unicode="Č"/><glyph d="M26 280q0 128 74.5 209t194.5 81q95 0 163 -54t91 -148l-74 -14q-20 68 -67 106t-113 38q-84 0 -137.5 -60.5t-53.5 -157.5t53.5 -157.5t137.5 -60.5q66 0 113 38t67 106l74 -14q-23 -94 -91 -148t-163 -54q-120 0 -194.5 81t-74.5 209zM269 627l-120 240h54l93 -181 l93 181h54l-120 -240h-54z" glyph-name="ccaron" horiz-adv-x="574" unicode="č"/><glyph d="M36 0v750h272q160 0 251 -99.5t91 -275.5t-91 -275.5t-251 -99.5h-272zM116 75h200q114 0 181.5 79.5t67.5 221.5t-67.5 220.5t-182.5 78.5h-199v-600zM311 817l-120 240h54l93 -181l93 181h54l-120 -240h-54z" glyph-name="Dcaron" horiz-adv-x="675" unicode="Ď"/><glyph d="M482 765h73v-765h-73v115q-32 -59 -85.5 -92t-120.5 -33q-109 0 -179.5 83t-70.5 211q0 127 69.5 206.5t179.5 79.5q68 0 121.5 -32t85.5 -90v317zM295 62q81 0 134 62.5t53 159.5q0 95 -52 154.5t-135 59.5q-84 0 -137.5 -60.5t-53.5 -153.5q0 -95 54.5 -158.5 t136.5 -63.5zM610 644v106h79v-106l-33 -77h-35l28 77h-39z" glyph-name="dcaron" horiz-adv-x="725" unicode="ď"/><glyph d="M46 0v393h-41v64h41v293h272q160 0 251 -99.5t91 -275.5t-91 -275.5t-251 -99.5h-272zM126 75h200q114 0 181.5 79.5t67.5 221.5t-67.5 220.5t-182.5 78.5h-199v-218h279v-64h-279v-318z" glyph-name="Dcroat" horiz-adv-x="670" unicode="Đ"/><glyph d="M481 765h74v-51h87v-64h-87v-650h-74v115q-31 -59 -84 -92t-121 -33q-110 0 -180.5 83t-70.5 211q0 127 69.5 206.5t180.5 79.5q68 0 121.5 -32.5t84.5 -90.5v203h-339v64h339v51zM294 62q81 0 134 62.5t53 159.5q0 95 -51.5 154.5t-134.5 59.5q-84 0 -137.5 -60.5 t-53.5 -154.5t54.5 -157.5t135.5 -63.5z" glyph-name="dcroat" horiz-adv-x="670" unicode="đ"/><glyph d="M36 0v750h504v-74h-424v-265h404v-73h-404v-264h424v-74h-504zM37 847v64h500v-64h-500z" glyph-name="Emacron" horiz-adv-x="560" unicode="Ē"/><glyph d="M555 257h-450q8 -86 61.5 -140.5t134.5 -54.5q66 0 112 39.5t65 112.5l71 -22q-23 -94 -91 -148t-163 -54q-119 0 -194 82t-75 210t75 208t196 80t189.5 -83t68.5 -230zM108 318h364q-13 86 -59 133t-116 47q-75 0 -126.5 -50t-62.5 -130zM40 657v64h500v-64h-500z" glyph-name="emacron" horiz-adv-x="580" unicode="ē"/><glyph d="M36 0v750h504v-74h-424v-265h404v-73h-404v-264h424v-74h-504zM366 940h44q0 -60 -33 -95t-90 -35t-90 35.5t-33 94.5h44q0 -46 21.5 -68.5t58.5 -22.5q35 0 56.5 23t21.5 68z" glyph-name="Ebreve" horiz-adv-x="560" unicode="Ĕ"/><glyph d="M555 257h-450q8 -86 61.5 -140.5t134.5 -54.5q66 0 112 39.5t65 112.5l71 -22q-23 -94 -91 -148t-163 -54q-119 0 -194 82t-75 210t75 208t196 80t189.5 -83t68.5 -230zM108 318h364q-13 86 -59 133t-116 47q-75 0 -126.5 -50t-62.5 -130zM369 750h44q0 -60 -33 -95 t-90 -35t-90 35.5t-33 94.5h44q0 -46 21.5 -68.5t58.5 -22.5q35 0 56.5 23t21.5 68z" glyph-name="ebreve" horiz-adv-x="580" unicode="ĕ"/><glyph d="M36 0v750h504v-74h-424v-265h404v-73h-404v-264h424v-74h-504zM248 831v106h79v-106h-79z" glyph-name="Edotaccent" horiz-adv-x="560" unicode="Ė"/><glyph d="M555 257h-450q8 -86 61.5 -140.5t134.5 -54.5q66 0 112 39.5t65 112.5l71 -22q-23 -94 -91 -148t-163 -54q-119 0 -194 82t-75 210t75 208t196 80t189.5 -83t68.5 -230zM108 318h364q-13 86 -59 133t-116 47q-75 0 -126.5 -50t-62.5 -130zM251 641v106h79v-106h-79z" glyph-name="edotaccent" horiz-adv-x="580" unicode="ė"/><glyph d="M36 0v750h504v-74h-424v-265h404v-73h-404v-264h424v-74q-67 -40 -97 -71.5t-30 -61.5q0 -39 46 -39q43 0 55 36h43q-29 -74 -104 -74q-39 0 -61.5 20.5t-22.5 56.5q0 71 105 133h-438z" glyph-name="Eogonek" horiz-adv-x="577" unicode="Ę"/><glyph d="M555 257h-450q8 -86 61.5 -140.5t134.5 -54.5q66 0 112 39.5t65 112.5l71 -22q-29 -120 -129 -173q-117 -71 -117 -126q0 -40 46 -40q43 0 55 36h43q-29 -73 -104 -73q-39 0 -61.5 20.5t-22.5 56.5q0 51 55 98q-130 -7 -209 76t-79 215q0 128 75 208t196 80t189.5 -83 t68.5 -230zM108 318h364q-13 86 -59 133t-116 47q-75 0 -126.5 -50t-62.5 -130z" glyph-name="eogonek" horiz-adv-x="580" unicode="ę"/><glyph d="M36 0v750h504v-74h-424v-265h404v-73h-404v-264h424v-74h-504zM261 817l-120 240h54l93 -181l93 181h54l-120 -240h-54z" glyph-name="Ecaron" horiz-adv-x="560" unicode="Ě"/><glyph d="M555 257h-450q8 -86 61.5 -140.5t134.5 -54.5q66 0 112 39.5t65 112.5l71 -22q-23 -94 -91 -148t-163 -54q-119 0 -194 82t-75 210t75 208t196 80t189.5 -83t68.5 -230zM108 318h364q-13 86 -59 133t-116 47q-75 0 -126.5 -50t-62.5 -130zM264 627l-120 240h54l93 -181 l93 181h54l-120 -240h-54z" glyph-name="ecaron" horiz-adv-x="580" unicode="ě"/><glyph d="M372 425h333q5 -29 5 -68q0 -173 -89 -269.5t-246 -96.5q-159 0 -254.5 105t-95.5 279t95 280t252 106q115 0 197 -60t117 -171l-79 -24q-24 83 -87.5 131.5t-148.5 48.5q-118 0 -189.5 -88t-71.5 -227q0 -141 74 -223t200 -82q118 0 178 75.5t63 211.5h-253v72zM224 818 l120 240h55l120 -240h-55l-92 181l-93 -181h-55z" glyph-name="Gcircumflex" horiz-adv-x="736" unicode="Ĝ"/><glyph d="M293 -250q-109 0 -178 43t-89 124l66 25q20 -62 67.5 -91t129.5 -29q98 0 145.5 47t47.5 145v98q-32 -58 -85.5 -90t-121.5 -32q-110 0 -179.5 79.5t-69.5 206.5q0 128 70.5 211t179.5 83q67 0 120.5 -33t85.5 -92v115h73v-556q0 -123 -67.5 -188.5t-194.5 -65.5z M294 498q-82 0 -136 -63t-54 -158q0 -94 53.5 -154.5t137.5 -60.5q83 0 135 59.5t52 154.5q0 97 -53 159.5t-135 62.5zM149 627l120 240h55l120 -240h-55l-92 181l-93 -181h-55z" glyph-name="gcircumflex" horiz-adv-x="590" unicode="ĝ"/><glyph d="M372 425h333q5 -29 5 -68q0 -173 -89 -269.5t-246 -96.5q-159 0 -254.5 105t-95.5 279t95 280t252 106q115 0 197 -60t117 -171l-79 -24q-24 83 -87.5 131.5t-148.5 48.5q-118 0 -189.5 -88t-71.5 -227q0 -141 74 -223t200 -82q118 0 178 75.5t63 211.5h-253v72zM435 941 h44q0 -60 -33 -95t-90 -35t-90 35.5t-33 94.5h44q0 -46 21.5 -68.5t58.5 -22.5q35 0 56.5 23t21.5 68z" glyph-name="Gbreve" horiz-adv-x="736" unicode="Ğ"/><glyph d="M293 -250q-109 0 -178 43t-89 124l66 25q20 -62 67.5 -91t129.5 -29q98 0 145.5 47t47.5 145v98q-32 -58 -85.5 -90t-121.5 -32q-110 0 -179.5 79.5t-69.5 206.5q0 128 70.5 211t179.5 83q67 0 120.5 -33t85.5 -92v115h73v-556q0 -123 -67.5 -188.5t-194.5 -65.5z M294 498q-82 0 -136 -63t-54 -158q0 -94 53.5 -154.5t137.5 -60.5q83 0 135 59.5t52 154.5q0 97 -53 159.5t-135 62.5zM360 750h44q0 -60 -33 -95t-90 -35t-90 35.5t-33 94.5h44q0 -46 21.5 -68.5t58.5 -22.5q35 0 56.5 23t21.5 68z" glyph-name="gbreve" horiz-adv-x="590" unicode="ğ"/><glyph d="M372 425h333q5 -29 5 -68q0 -173 -89 -269.5t-246 -96.5q-159 0 -254.5 105t-95.5 279t95 280t252 106q115 0 197 -60t117 -171l-79 -24q-24 83 -87.5 131.5t-148.5 48.5q-118 0 -189.5 -88t-71.5 -227q0 -141 74 -223t200 -82q118 0 178 75.5t63 211.5h-253v72zM317 832 v106h79v-106h-79z" glyph-name="Gdotaccent" horiz-adv-x="736" unicode="Ġ"/><glyph d="M293 -250q-109 0 -178 43t-89 124l66 25q20 -62 67.5 -91t129.5 -29q98 0 145.5 47t47.5 145v98q-32 -58 -85.5 -90t-121.5 -32q-110 0 -179.5 79.5t-69.5 206.5q0 128 70.5 211t179.5 83q67 0 120.5 -33t85.5 -92v115h73v-556q0 -123 -67.5 -188.5t-194.5 -65.5z M294 498q-82 0 -136 -63t-54 -158q0 -94 53.5 -154.5t137.5 -60.5q83 0 135 59.5t52 154.5q0 97 -53 159.5t-135 62.5zM242 641v106h79v-106h-79z" glyph-name="gdotaccent" horiz-adv-x="590" unicode="ġ"/><glyph d="M372 425h333q5 -29 5 -68q0 -173 -89 -269.5t-246 -96.5q-159 0 -254.5 105t-95.5 279t95 280t252 106q115 0 197 -60t117 -171l-79 -24q-24 83 -87.5 131.5t-148.5 48.5q-118 0 -189.5 -88t-71.5 -227q0 -141 74 -223t200 -82q118 0 178 75.5t63 211.5h-253v72z M315 -215v106h79v-106l-33 -77h-35l28 77h-39z" glyph-name="uni0122" horiz-adv-x="736" unicode="Ģ"/><glyph d="M293 -250q-109 0 -178 43t-89 124l66 25q20 -62 67.5 -91t129.5 -29q98 0 145.5 47t47.5 145v98q-32 -58 -85.5 -90t-121.5 -32q-110 0 -179.5 79.5t-69.5 206.5q0 128 70.5 211t179.5 83q67 0 120.5 -33t85.5 -92v115h73v-556q0 -123 -67.5 -188.5t-194.5 -65.5z M294 498q-82 0 -136 -63t-54 -158q0 -94 53.5 -154.5t137.5 -60.5q83 0 135 59.5t52 154.5q0 97 -53 159.5t-135 62.5zM335 862v-106h-79v106l33 78h35l-28 -78h39z" glyph-name="uni0123" horiz-adv-x="590" unicode="ģ"/><glyph d="M36 0v750h80v-339h454v339h80v-750h-80v338h-454v-338h-80zM210 817l120 240h55l120 -240h-55l-92 181l-93 -181h-55z" glyph-name="Hcircumflex" horiz-adv-x="685" unicode="Ĥ"/><glyph d="M109 765v-322q34 60 90 93.5t127 33.5q112 0 173 -62.5t61 -176.5v-331h-73v295q0 99 -43.5 151t-125.5 52q-93 0 -151 -60.5t-58 -155.5v-282h-73v765h73zM165 817l120 240h55l120 -240h-55l-92 181l-93 -181h-55z" glyph-name="hcircumflex" unicode="ĥ"/><glyph d="M80 0v575h-60v49h60v126h80v-126h454v126h80v-126h61v-49h-61v-575h-80v338h-454v-338h-80zM160 411h454v164h-454v-164z" glyph-name="Hbar" horiz-adv-x="775" unicode="Ħ"/><glyph d="M113 765v-74h392v-64h-392v-184q34 60 90 93.5t127 33.5q112 0 173 -62.5t61 -176.5v-331h-73v295q0 99 -43.5 151t-125.5 52q-93 0 -151 -60.5t-58 -155.5v-282h-73v627h-35v64h35v74h73z" glyph-name="hbar" horiz-adv-x="574" unicode="ħ"/><glyph d="M35 0v750h80v-750h-80zM170 866q34 0 49 44.5t15 147.5h62q0 -128 -28.5 -186t-91.5 -58q-37 0 -60.5 20t-34 48.5t-19 57t-23.5 48.5t-39 20q-40 0 -61 -50.5t-21 -141.5h-62q0 119 34.5 181.5t99.5 62.5q42 0 68.5 -30.5t36 -66.5t28 -66.5t47.5 -30.5z" glyph-name="Itilde" horiz-adv-x="151" unicode="Ĩ"/><glyph d="M35 0v560h74v-560h-74zM166 676q34 0 49 44.5t15 147.5h62q0 -128 -28.5 -186t-91.5 -58q-37 0 -60.5 20t-34 48.5t-19 57t-23.5 48.5t-39 20q-40 0 -61 -50.5t-21 -141.5h-62q0 119 34.5 181.5t99.5 62.5q42 0 68.5 -30.5t36 -66.5t28 -66.5t47.5 -30.5z" glyph-name="itilde" horiz-adv-x="144" unicode="ĩ"/><glyph d="M35 0v750h80v-750h-80zM-175 847v64h500v-64h-500z" glyph-name="Imacron" horiz-adv-x="151" unicode="Ī"/><glyph d="M35 0v560h74v-560h-74zM-179 657v64h500v-64h-500z" glyph-name="imacron" horiz-adv-x="144" unicode="ī"/><glyph d="M35 -133q0 71 107 134l-14 5v744h80v-750q-67 -40 -97.5 -71.5t-30.5 -61.5q0 -39 46 -39q42 0 55 36h43q-30 -74 -104 -74q-40 0 -62.5 20.5t-22.5 56.5z" glyph-name="Iogonek" horiz-adv-x="259" unicode="Į"/><glyph d="M35 -133q0 71 109 135l-11 9v549h74v-560q-67 -40 -97 -71.5t-30 -61.5q0 -39 46 -39q42 0 55 36h43q-30 -74 -105 -74q-39 0 -61.5 20.5t-22.5 56.5zM131 610v106h79v-106h-79z" glyph-name="iogonek" horiz-adv-x="259" unicode="į"/><glyph d="M35 0v750h80v-750h-80zM36 831v106h79v-106h-79z" glyph-name="Idotaccent" horiz-adv-x="151" unicode="İ"/><glyph d="M35 0v560h74v-560h-74z" glyph-name="dotlessi" horiz-adv-x="144" unicode="ı"/><glyph d="M35 267v483h80v-483h-80zM267 209v541h80v-571q0 -179 -178 -179h-134v77h101q131 0 131 132z" glyph-name="IJ" horiz-adv-x="383" unicode="Ĳ"/><glyph d="M37 0v560h74v-560h-74zM351 -45v605h74v-618q0 -86 -49 -134t-137 -48h-79v70h66q125 0 125 125zM35 610v106h79v-106h-79zM348 610v107h79v-107h-79z" glyph-name="ij" horiz-adv-x="462" unicode="ĳ"/><glyph d="M285 198v552h80v-571q0 -179 -177 -179h-168v74h141q124 0 124 124zM193 815l120 240h55l120 -240h-55l-92 181l-93 -181h-55z" glyph-name="Jcircumflex" horiz-adv-x="401" unicode="Ĵ"/><glyph d="M212 -45v605h73v-618q0 -86 -48.5 -134t-136.5 -48h-79v70h66q125 0 125 125zM115 617l120 240h55l120 -240h-55l-92 181l-93 -181h-55z" glyph-name="jcircumflex" horiz-adv-x="320" unicode="ĵ"/><glyph d="M115 750v-347l365 347h104l-394 -375l394 -375h-104l-365 347v-347h-80v750h80zM270 -215v106h79v-106l-33 -77h-35l28 77h-39z" glyph-name="uni0136" horiz-adv-x="605" unicode="Ķ"/><glyph d="M109 765v-445l263 240h96l-307 -280l307 -280h-96l-263 240v-240h-74v765h74zM206 -215v106h79v-106l-33 -77h-35l28 77h-39z" glyph-name="uni0137" horiz-adv-x="488" unicode="ķ"/><glyph d="M109 560v-240l263 240h96l-307 -280l307 -280h-96l-263 240v-240h-74v560h74z" glyph-name="kgreenlandic" horiz-adv-x="488" unicode="ĸ"/><glyph d="M36 0v750h80v-676h424v-74h-504zM49 817h-40l77 240h85z" glyph-name="Lacute" horiz-adv-x="560" unicode="Ĺ"/><glyph d="M35 0v765h74v-765h-74zM45 817h-40l77 240h85z" glyph-name="lacute" horiz-adv-x="144" unicode="ĺ"/><glyph d="M36 0v750h80v-676h424v-74h-504zM248 -215v106h79v-106l-33 -77h-35l28 77h-39z" glyph-name="uni013B" horiz-adv-x="560" unicode="Ļ"/><glyph d="M35 0v765h74v-765h-74zM29 -215v106h79v-106l-33 -77h-35l28 77h-39z" glyph-name="uni013C" horiz-adv-x="144" unicode="ļ"/><glyph d="M36 0v750h80v-676h424v-74h-504zM38 914v106h79v-106l-33 -77h-35l28 77h-39z" glyph-name="Lcaron" horiz-adv-x="560" unicode="Ľ"/><glyph d="M36 0v765h74v-765h-74zM36 914v106h79v-106l-33 -77h-35l28 77h-39z" glyph-name="lcaron" horiz-adv-x="150" unicode="ľ"/><glyph d="M36 0v750h80v-676h424v-74h-504zM281 491v106h79v-106h-79z" glyph-name="Ldot" horiz-adv-x="560" unicode="Ŀ"/><glyph d="M35 0v765h74v-765h-74zM271 301v106h78v-106h-78z" glyph-name="ldot" horiz-adv-x="385" unicode="ŀ"/><glyph d="M65 176l-45 44l159 159v371h80v-291l115 115l45 -44l-160 -160v-296h425v-74h-505v290z" glyph-name="Lslash" horiz-adv-x="689" unicode="Ł"/><glyph d="M50 184l-45 45l163 163v374h73v-301l118 118l45 -45l-163 -162v-375h-73v301z" glyph-name="lslash" horiz-adv-x="409" unicode="ł"/><glyph d="M35 0v750h105l433 -657v657h80v-750h-105l-433 656v-656h-80zM314 817h-40l77 240h85z" glyph-name="Nacute" horiz-adv-x="689" unicode="Ń"/><glyph d="M109 560v-117q34 60 90 93.5t127 33.5q112 0 173 -62.5t61 -176.5v-331h-73v295q0 99 -43.5 151t-125.5 52q-93 0 -151 -60.5t-58 -155.5v-282h-73v560h73zM267 627h-40l77 240h85z" glyph-name="nacute" unicode="ń"/><glyph d="M35 0v750h105l433 -657v657h80v-750h-105l-433 656v-656h-80zM304 -215v106h79v-106l-33 -77h-35l28 77h-39z" glyph-name="uni0145" horiz-adv-x="689" unicode="Ņ"/><glyph d="M109 560v-117q34 60 90 93.5t127 33.5q112 0 173 -62.5t61 -176.5v-331h-73v295q0 99 -43.5 151t-125.5 52q-93 0 -151 -60.5t-58 -155.5v-282h-73v560h73zM254 -215v106h79v-106l-33 -77h-35l28 77h-39z" glyph-name="uni0146" unicode="ņ"/><glyph d="M35 0v750h105l433 -657v657h80v-750h-105l-433 656v-656h-80zM314 817l-120 240h54l93 -181l93 181h54l-120 -240h-54z" glyph-name="Ncaron" horiz-adv-x="689" unicode="Ň"/><glyph d="M109 560v-117q34 60 90 93.5t127 33.5q112 0 173 -62.5t61 -176.5v-331h-73v295q0 99 -43.5 151t-125.5 52q-93 0 -151 -60.5t-58 -155.5v-282h-73v560h73zM267 627l-120 240h54l93 -181l93 181h54l-120 -240h-54z" glyph-name="ncaron" unicode="ň"/><glyph d="M109 560v-117q34 60 90 93.5t127 33.5q112 0 173 -62.5t61 -176.5v-331h-73v295q0 99 -43.5 151t-125.5 52q-93 0 -151 -60.5t-58 -155.5v-282h-73v560h73zM257 724v106h79v-106l-33 -77h-35l28 77h-39z" glyph-name="napostrophe" unicode="ŉ"/><glyph d="M26 375q0 173 94 279t249 106q154 0 247.5 -106t93.5 -279t-93.5 -279t-247.5 -106q-155 0 -249 106t-94 279zM111 376q0 -149 74 -230t184 -81q109 0 182.5 81t73.5 230q0 147 -73.5 228t-182.5 81q-110 0 -184 -80.5t-74 -228.5zM122 847v64h500v-64h-500z" glyph-name="Omacron" horiz-adv-x="735" unicode="Ō"/><glyph d="M297 -10q-118 0 -194.5 83t-76.5 211q0 127 74.5 206.5t193.5 79.5t192.5 -79.5t73.5 -208.5t-73 -210.5t-190 -81.5zM295 62q81 0 134 62.5t53 159.5q0 95 -52 154.5t-135 59.5q-84 0 -137.5 -60.5t-53.5 -153.5q0 -95 54.5 -158.5t136.5 -63.5zM42 657v64h500v-64h-500 z" glyph-name="omacron" unicode="ō"/><glyph d="M26 375q0 173 94 279t249 106q154 0 247.5 -106t93.5 -279t-93.5 -279t-247.5 -106q-155 0 -249 106t-94 279zM111 376q0 -149 74 -230t184 -81q109 0 182.5 81t73.5 230q0 147 -73.5 228t-182.5 81q-110 0 -184 -80.5t-74 -228.5zM451 940h44q0 -60 -33 -95t-90 -35 t-90 35.5t-33 94.5h44q0 -46 21.5 -68.5t58.5 -22.5q35 0 56.5 23t21.5 68z" glyph-name="Obreve" horiz-adv-x="735" unicode="Ŏ"/><glyph d="M297 -10q-118 0 -194.5 83t-76.5 211q0 127 74.5 206.5t193.5 79.5t192.5 -79.5t73.5 -208.5t-73 -210.5t-190 -81.5zM295 62q81 0 134 62.5t53 159.5q0 95 -52 154.5t-135 59.5q-84 0 -137.5 -60.5t-53.5 -153.5q0 -95 54.5 -158.5t136.5 -63.5zM371 750h44 q0 -60 -33 -95t-90 -35t-90 35.5t-33 94.5h44q0 -46 21.5 -68.5t58.5 -22.5q35 0 56.5 23t21.5 68z" glyph-name="obreve" unicode="ŏ"/><glyph d="M26 375q0 173 94 279t249 106q154 0 247.5 -106t93.5 -279t-93.5 -279t-247.5 -106q-155 0 -249 106t-94 279zM111 376q0 -149 74 -230t184 -81q109 0 182.5 81t73.5 230q0 147 -73.5 228t-182.5 81q-110 0 -184 -80.5t-74 -228.5zM295 817h-40l77 240h85zM437 817h-40 l76 240h86z" glyph-name="Ohungarumlaut" horiz-adv-x="735" unicode="Ő"/><glyph d="M297 -10q-118 0 -194.5 83t-76.5 211q0 127 74.5 206.5t193.5 79.5t192.5 -79.5t73.5 -208.5t-73 -210.5t-190 -81.5zM295 62q81 0 134 62.5t53 159.5q0 95 -52 154.5t-135 59.5q-84 0 -137.5 -60.5t-53.5 -153.5q0 -95 54.5 -158.5t136.5 -63.5zM215 627h-40l77 240h85z M357 627h-40l76 240h86z" glyph-name="ohungarumlaut" unicode="ő"/><glyph d="M505 0q-39 -10 -93 -10q-175 0 -281 106t-106 279t106 279t281 106q54 0 93 -10h506v-74h-426v-266h406v-71h-406v-265h426v-74h-506zM505 87v576q-24 22 -87 22q-130 0 -219 -80t-89 -228q0 -76 25.5 -137t69 -98.5t96 -57t110.5 -19.5q67 0 94 22z" glyph-name="OE" horiz-adv-x="1031" unicode="Œ"/><glyph d="M297 -10q-118 0 -194.5 83t-76.5 211q0 127 74.5 206.5t193.5 79.5q76 0 135 -34t92 -96q34 62 94.5 96.5t137.5 34.5q121 0 189.5 -83t68.5 -229h-450q8 -86 61.5 -140.5t134.5 -54.5q66 0 112 39.5t65 112.5l71 -23q-23 -94 -91 -148t-163 -54q-75 0 -135 35.5 t-94 98.5q-33 -63 -91.5 -99t-133.5 -36zM295 62q81 0 134 62.5t53 159.5q0 95 -52 154.5t-135 59.5q-84 0 -137.5 -60.5t-53.5 -153.5q0 -95 54.5 -158.5t136.5 -63.5zM564 320h364q-13 85 -59 132t-116 47q-75 0 -126.5 -49.5t-62.5 -129.5z" glyph-name="oe" horiz-adv-x="1036" unicode="œ"/><glyph d="M36 0v750h306q116 0 184.5 -58.5t68.5 -158.5q0 -137 -125 -189q51 -19 77 -84l102 -254v-6h-83l-99 247q-21 53 -76 53h-275v-300h-80zM116 374h209q89 0 137 39.5t48 112.5q0 72 -48 111t-137 39h-209v-302zM280 818h-40l77 240h85z" glyph-name="Racute" horiz-adv-x="674" unicode="Ŕ"/><glyph d="M36 388q0 84 44 128t128 44h112v-68h-96q-115 0 -115 -114v-378h-73v388zM145 627h-40l77 240h85z" glyph-name="racute" horiz-adv-x="340" unicode="ŕ"/><glyph d="M36 0v750h306q116 0 184.5 -58.5t68.5 -158.5q0 -137 -125 -189q51 -19 77 -84l102 -254v-6h-83l-99 247q-21 53 -76 53h-275v-300h-80zM116 374h209q89 0 137 39.5t48 112.5q0 72 -48 111t-137 39h-209v-302zM303 -215v106h79v-106l-33 -77h-35l28 77h-39z" glyph-name="uni0156" horiz-adv-x="674" unicode="Ŗ"/><glyph d="M36 388q0 84 44 128t128 44h112v-68h-96q-115 0 -115 -114v-378h-73v388zM31 -215v106h79v-106l-33 -77h-35l28 77h-39z" glyph-name="uni0157" horiz-adv-x="340" unicode="ŗ"/><glyph d="M36 0v750h306q116 0 184.5 -58.5t68.5 -158.5q0 -137 -125 -189q51 -19 77 -84l102 -254v-6h-83l-99 247q-21 53 -76 53h-275v-300h-80zM116 374h209q89 0 137 39.5t48 112.5q0 72 -48 111t-137 39h-209v-302zM280 818l-120 240h54l93 -181l93 181h54l-120 -240h-54z" glyph-name="Rcaron" horiz-adv-x="674" unicode="Ř"/><glyph d="M36 388q0 84 44 128t128 44h112v-68h-96q-115 0 -115 -114v-378h-73v388zM145 627l-120 240h54l93 -181l93 181h54l-120 -240h-54z" glyph-name="rcaron" horiz-adv-x="340" unicode="ř"/><glyph d="M115 567q0 -37 26 -62.5t67.5 -40t91.5 -26.5t100 -28.5t91.5 -39.5t67.5 -65t26 -101q0 -99 -68 -156.5t-184 -57.5q-109 0 -188.5 53t-119.5 153l76 23q35 -79 92.5 -116.5t143.5 -37.5q73 0 118 37.5t45 98.5q0 43 -26 73.5t-67.5 47t-91.5 29.5t-100 28t-91.5 35.5 t-67.5 58t-26 90.5q0 90 68.5 143.5t183.5 53.5q106 0 175 -50.5t108 -157.5l-77 -20q-33 79 -83.5 116t-123.5 37q-74 0 -120 -32.5t-46 -85.5zM279 817h-40l77 240h85z" glyph-name="Sacute" horiz-adv-x="611" unicode="Ś"/><glyph d="M485 149q0 -74 -55.5 -116.5t-151.5 -42.5q-180 0 -253 158l68 20q32 -56 73 -81t103 -25q64 0 101 23t37 63q0 39 -38.5 62t-93 34.5t-109 26t-93 49t-38.5 89.5q0 72 59 116.5t155 44.5q181 0 226 -159l-68 -18q-35 105 -156 105q-60 0 -98.5 -23.5t-38.5 -59.5 q0 -34 38 -54t93 -32.5t109.5 -28.5t92.5 -54t38 -97zM229 627h-40l77 240h85z" glyph-name="sacute" horiz-adv-x="511" unicode="ś"/><glyph d="M115 567q0 -37 26 -62.5t67.5 -40t91.5 -26.5t100 -28.5t91.5 -39.5t67.5 -65t26 -101q0 -99 -68 -156.5t-184 -57.5q-109 0 -188.5 53t-119.5 153l76 23q35 -79 92.5 -116.5t143.5 -37.5q73 0 118 37.5t45 98.5q0 43 -26 73.5t-67.5 47t-91.5 29.5t-100 28t-91.5 35.5 t-67.5 58t-26 90.5q0 90 68.5 143.5t183.5 53.5q106 0 175 -50.5t108 -157.5l-77 -20q-33 79 -83.5 116t-123.5 37q-74 0 -120 -32.5t-46 -85.5zM174 817l120 240h55l120 -240h-55l-92 181l-93 -181h-55z" glyph-name="Scircumflex" horiz-adv-x="611" unicode="Ŝ"/><glyph d="M485 149q0 -74 -55.5 -116.5t-151.5 -42.5q-180 0 -253 158l68 20q32 -56 73 -81t103 -25q64 0 101 23t37 63q0 39 -38.5 62t-93 34.5t-109 26t-93 49t-38.5 89.5q0 72 59 116.5t155 44.5q181 0 226 -159l-68 -18q-35 105 -156 105q-60 0 -98.5 -23.5t-38.5 -59.5 q0 -34 38 -54t93 -32.5t109.5 -28.5t92.5 -54t38 -97zM124 627l120 240h55l120 -240h-55l-92 181l-93 -181h-55z" glyph-name="scircumflex" horiz-adv-x="511" unicode="ŝ"/><glyph d="M232 -157l35 37q16 -37 58 -37q44 0 44 42q0 18 -11.5 29.5t-26 17t-28.5 21t-18 40.5q-187 22 -260 203l76 23q35 -79 92.5 -116.5t143.5 -37.5q73 0 118 37.5t45 98.5q0 43 -26 73.5t-67.5 47t-91.5 29.5t-100 28t-91.5 35.5t-67.5 58t-26 90.5q0 90 68.5 143.5 t183.5 53.5q106 0 175 -50.5t108 -157.5l-77 -20q-33 79 -83.5 116t-123.5 37q-74 0 -120 -32.5t-46 -85.5q0 -37 26 -62.5t67.5 -40t91.5 -26.5t100 -28.5t91.5 -39.5t67.5 -65t26 -101q0 -99 -67.5 -156t-183.5 -58q7 -14 30 -27t40 -30.5t17 -49.5q0 -39 -25 -61t-69 -22 q-55 0 -95 43z" glyph-name="Scedilla" horiz-adv-x="611" unicode="Ş"/><glyph d="M181 -157l35 37q16 -37 58 -37q44 0 44 42q0 18 -11.5 29.5t-26 17t-28.5 21t-18 40.5q-144 16 -209 155l68 20q32 -56 73 -81t103 -25q64 0 101 23t37 63q0 39 -38.5 62t-93 34.5t-109 26t-93 49t-38.5 89.5q0 72 59 116.5t155 44.5q181 0 226 -159l-68 -18 q-35 105 -156 105q-60 0 -98.5 -23.5t-38.5 -59.5q0 -34 38 -54t93 -32.5t109.5 -28.5t92.5 -54t38 -97q0 -73 -54 -115t-148 -44q7 -14 30 -27t40 -30.5t17 -49.5q0 -39 -25 -61t-69 -22q-55 0 -95 43z" glyph-name="scedilla" horiz-adv-x="511" unicode="ş"/><glyph d="M100 567q0 -37 26 -62.5t67.5 -40t91.5 -26.5t100 -28.5t91.5 -39.5t67.5 -65t26 -101q0 -99 -68 -156.5t-184 -57.5q-109 0 -188.5 53t-119.5 153l76 23q35 -79 92.5 -116.5t143.5 -37.5q73 0 118 37.5t45 98.5q0 43 -26 73.5t-67.5 47t-91.5 29.5t-100 28t-91.5 35.5 t-67.5 58t-26 90.5q0 90 68.5 143.5t183.5 53.5q106 0 175 -50.5t108 -157.5l-77 -20q-33 79 -83.5 116t-123.5 37q-74 0 -120 -32.5t-46 -85.5zM264 817l-120 240h54l93 -181l93 181h54l-120 -240h-54z" glyph-name="Scaron" horiz-adv-x="580" unicode="Š"/><glyph d="M470 149q0 -74 -55.5 -116.5t-151.5 -42.5q-180 0 -253 158l68 20q32 -56 73 -81t103 -25q64 0 101 23t37 63q0 39 -38.5 62t-93 34.5t-109 26t-93 49t-38.5 89.5q0 72 59 116.5t155 44.5q181 0 226 -159l-68 -18q-34 105 -156 105q-60 0 -98.5 -23.5t-38.5 -59.5 q0 -34 38 -54t92.5 -32.5t109.5 -28.5t93 -54t38 -97zM214 627l-120 240h54l93 -181l93 181h54l-120 -240h-54z" glyph-name="scaron" horiz-adv-x="480" unicode="š"/><glyph d="M278 0v676h-257v74h594v-74h-257v-676h-15q3 -18 18 -31.5t31 -20.5t29 -25t13 -45q0 -39 -25 -61t-69 -22q-57 0 -95 43l35 37q14 -37 58 -37t44 42q0 19 -12.5 31t-28 17.5t-29.5 23.5t-16 48h-18z" glyph-name="uni0162" horiz-adv-x="635" unicode="Ţ"/><glyph d="M375 492h-188v-352q0 -72 54 -72h134v-68h-109q3 -18 18 -31.5t31 -20.5t29 -25t13 -45q0 -39 -25 -61t-69 -22q-57 0 -95 43l35 37q14 -37 58 -37t44 42q0 19 -13 31t-28.5 17.5t-29 24t-15.5 48.5q-106 9 -106 117v374h-92v68h36q48 0 61 21t13 99h56v-120h188v-68z " glyph-name="uni0163" horiz-adv-x="395" unicode="ţ"/><glyph d="M278 0v676h-257v74h594v-74h-257v-676h-80zM291 817l-120 240h54l93 -181l93 181h54l-120 -240h-54z" glyph-name="Tcaron" horiz-adv-x="635" unicode="Ť"/><glyph d="M375 492h-188v-352q0 -72 54 -72h134v-68h-137q-125 0 -125 118v374h-92v68h36q48 0 61 21t13 99h56v-120h188v-68zM415 644v106h79v-106l-33 -77h-35l28 77h-39z" glyph-name="tcaron" horiz-adv-x="515" unicode="ť"/><glyph d="M278 0v404h-210v49h210v223h-257v74h594v-74h-257v-223h210v-49h-210v-404h-80z" glyph-name="Tbar" horiz-adv-x="635" unicode="Ŧ"/><glyph d="M375 492h-188v-174h173v-49h-173v-129q0 -72 54 -72h134v-68h-137q-125 0 -125 118v151h-87v49h87v174h-92v68h36q48 0 61 21t13 99h56v-120h188v-68z" glyph-name="tbar" horiz-adv-x="395" unicode="ŧ"/><glyph d="M640 332q0 -162 -80.5 -252t-226.5 -90t-226.5 90t-80.5 252v418h80v-418q0 -267 227 -267t227 267v418h80v-418zM427 867q34 0 49 44.5t15 147.5h62q0 -128 -28.5 -186t-91.5 -58q-37 0 -60.5 20t-34 48.5t-19 57t-23.5 48.5t-39 20q-40 0 -61 -50.5t-21 -141.5h-62 q0 119 34.5 181.5t99.5 62.5q42 0 68.5 -30.5t36 -66.5t28 -66.5t47.5 -30.5z" glyph-name="Utilde" horiz-adv-x="665" unicode="Ũ"/><glyph d="M476 0v118q-33 -60 -89.5 -94t-126.5 -34q-112 0 -173.5 62.5t-61.5 176.5v331h74v-295q0 -99 43 -151t125 -52q93 0 151 60.5t58 155.5v282h74v-560h-74zM382 680q34 0 49 44.5t15 147.5h62q0 -128 -28.5 -186t-91.5 -58q-37 0 -60.5 20t-34 48.5t-19 57t-23.5 48.5 t-39 20q-40 0 -61 -50.5t-21 -141.5h-62q0 119 34.5 181.5t99.5 62.5q42 0 68.5 -30.5t36 -66.5t28 -66.5t47.5 -30.5z" glyph-name="utilde" unicode="ũ"/><glyph d="M640 332q0 -162 -80.5 -252t-226.5 -90t-226.5 90t-80.5 252v418h80v-418q0 -267 227 -267t227 267v418h80v-418zM82 848v64h500v-64h-500z" glyph-name="Umacron" horiz-adv-x="665" unicode="Ū"/><glyph d="M476 0v118q-33 -60 -89.5 -94t-126.5 -34q-112 0 -173.5 62.5t-61.5 176.5v331h74v-295q0 -99 43 -151t125 -52q93 0 151 60.5t58 155.5v282h74v-560h-74zM37 661v64h500v-64h-500z" glyph-name="umacron" unicode="ū"/><glyph d="M640 332q0 -162 -80.5 -252t-226.5 -90t-226.5 90t-80.5 252v418h80v-418q0 -267 227 -267t227 267v418h80v-418zM411 941h44q0 -60 -33 -95t-90 -35t-90 35.5t-33 94.5h44q0 -46 21.5 -68.5t58.5 -22.5q35 0 56.5 23t21.5 68z" glyph-name="Ubreve" horiz-adv-x="665" unicode="Ŭ"/><glyph d="M476 0v118q-33 -60 -89.5 -94t-126.5 -34q-112 0 -173.5 62.5t-61.5 176.5v331h74v-295q0 -99 43 -151t125 -52q93 0 151 60.5t58 155.5v282h74v-560h-74zM366 754h44q0 -60 -33 -95t-90 -35t-90 35.5t-33 94.5h44q0 -46 21.5 -68.5t58.5 -22.5q35 0 56.5 23t21.5 68z " glyph-name="ubreve" unicode="ŭ"/><glyph d="M640 332q0 -162 -80.5 -252t-226.5 -90t-226.5 90t-80.5 252v418h80v-418q0 -267 227 -267t227 267v418h80v-418zM219 935q0 53 34.5 88t87.5 35q54 0 88 -35t34 -88q0 -54 -34 -89t-88 -35t-88 35t-34 89zM261 935q0 -37 22.5 -60.5t57.5 -23.5t57.5 23.5t22.5 60.5 q0 36 -22.5 59.5t-57.5 23.5t-57.5 -23.5t-22.5 -59.5z" glyph-name="Uring" horiz-adv-x="665" unicode="Ů"/><glyph d="M476 0v118q-33 -60 -89.5 -94t-126.5 -34q-112 0 -173.5 62.5t-61.5 176.5v331h74v-295q0 -99 43 -151t125 -52q93 0 151 60.5t58 155.5v282h74v-560h-74zM174 748q0 53 34.5 88t87.5 35q54 0 88 -35t34 -88q0 -54 -34 -89t-88 -35t-88 35t-34 89zM216 748 q0 -37 22.5 -60.5t57.5 -23.5t57.5 23.5t22.5 60.5q0 36 -22.5 59.5t-57.5 23.5t-57.5 -23.5t-22.5 -59.5z" glyph-name="uring" unicode="ů"/><glyph d="M640 332q0 -162 -80.5 -252t-226.5 -90t-226.5 90t-80.5 252v418h80v-418q0 -267 227 -267t227 267v418h80v-418zM255 818h-40l77 240h85zM397 818h-40l76 240h86z" glyph-name="Uhungarumlaut" horiz-adv-x="665" unicode="Ű"/><glyph d="M476 0v118q-33 -60 -89.5 -94t-126.5 -34q-112 0 -173.5 62.5t-61.5 176.5v331h74v-295q0 -99 43 -151t125 -52q93 0 151 60.5t58 155.5v282h74v-560h-74zM210 631h-40l77 240h85zM352 631h-40l76 240h86z" glyph-name="uhungarumlaut" unicode="ű"/><glyph d="M26 750h80v-418q0 -267 227 -267t227 267v418h80v-418q0 -117 -42.5 -197.5t-122.5 -116.5q-62 -38 -89.5 -67.5t-27.5 -59.5q0 -39 46 -39q42 0 55 36h43q-30 -74 -105 -74q-39 0 -61.5 20.5t-22.5 56.5q0 53 59 101q-27 -3 -51 -3q-139 0 -217 96t-78 247v418z" glyph-name="Uogonek" horiz-adv-x="665" unicode="Ų"/><glyph d="M267 62q93 0 151 60.5t58 155.5v282h74v-560q-67 -40 -97 -71.5t-30 -61.5q0 -39 46 -39q41 0 55 36h43q-30 -74 -104 -74q-40 0 -62.5 20.5t-22.5 56.5q0 71 109 135l-11 3v113q-33 -60 -89.5 -94t-126.5 -34q-112 0 -173.5 62.5t-61.5 176.5v331h74v-295q0 -99 43 -151 t125 -52z" glyph-name="uogonek" horiz-adv-x="602" unicode="ų"/><glyph d="M21 750h83l165 -607l158 607h77l159 -608l164 608h83l-202 -750h-85l-157 633l-158 -633h-85zM333 817l120 240h55l120 -240h-55l-92 181l-93 -181h-55z" glyph-name="Wcircumflex" horiz-adv-x="930" unicode="Ŵ"/><glyph d="M195 0l-174 560h80l138 -459l128 459h72l128 -459l138 459h80l-174 -560h-78l-130 439l-130 -439h-78zM270 627l120 240h55l120 -240h-55l-92 181l-93 -181h-55z" glyph-name="wcircumflex" horiz-adv-x="805" unicode="ŵ"/><glyph d="M283 335l-263 415h93l210 -348l210 348h93l-263 -415v-335h-80v335zM191 817l120 240h55l120 -240h-55l-92 181l-93 -181h-55z" glyph-name="Ycircumflex" horiz-adv-x="647" unicode="Ŷ"/><glyph d="M293 -250q-109 0 -178 43t-90 124l67 25q21 -63 68.5 -91.5t128.5 -28.5q193 0 193 192v104q-33 -60 -89.5 -94t-127.5 -34q-112 0 -173.5 62.5t-61.5 176.5v331h74v-295q0 -99 43 -151t125 -52q93 0 151.5 60.5t58.5 155.5v282h73v-556q0 -123 -67 -188.5t-195 -65.5z M159 627l120 240h55l120 -240h-55l-92 181l-93 -181h-55z" glyph-name="ycircumflex" horiz-adv-x="591" unicode="ŷ"/><glyph d="M268 335l-263 415h93l210 -348l210 348h93l-263 -415v-335h-80v335zM208 845v106h79v-106h-79zM330 845v106h78v-106h-78z" glyph-name="Ydieresis" horiz-adv-x="616" unicode="Ÿ"/><glyph d="M21 74l420 602h-420v74h519v-74l-420 -602h420v-74h-519v74zM226 817h-40l77 240h85z" glyph-name="Zacute" horiz-adv-x="560" unicode="Ź"/><glyph d="M21 68l360 424h-360v68h465v-68l-360 -424h360v-68h-465v68zM226 627h-40l77 240h85z" glyph-name="zacute" horiz-adv-x="506" unicode="ź"/><glyph d="M21 74l420 602h-420v74h519v-74l-420 -602h420v-74h-519v74zM213 831v106h79v-106h-79z" glyph-name="Zdotaccent" horiz-adv-x="560" unicode="Ż"/><glyph d="M21 68l360 424h-360v68h465v-68l-360 -424h360v-68h-465v68zM213 641v106h79v-106h-79z" glyph-name="zdotaccent" horiz-adv-x="506" unicode="ż"/><glyph d="M6 74l420 602h-420v74h519v-74l-420 -602h420v-74h-519v74zM211 817l-120 240h54l93 -181l93 181h54l-120 -240h-54z" glyph-name="Zcaron" horiz-adv-x="530" unicode="Ž"/><glyph d="M6 68l360 424h-360v68h465v-68l-360 -424h360v-68h-465v68zM210 627l-120 240h54l93 -181l93 181h54l-120 -240h-54z" glyph-name="zcaron" horiz-adv-x="475" unicode="ž"/><glyph d="M224 -50v542h-92v52l93 16v33q0 84 40.5 128t116.5 44h101v-68h-92q-26 0 -44 -8t-27.5 -19.5t-14.5 -31.5t-6 -36t-1 -42h186v-68h-186v-560q0 -90 -43 -131t-135 -41h-100v68h104q56 0 78 27t22 95z" glyph-name="florin" horiz-adv-x="504" unicode="ƒ"/><glyph d="M115 567q0 -37 26 -62.5t67.5 -40t91.5 -26.5t100 -28.5t91.5 -39.5t67.5 -65t26 -101q0 -99 -68 -156.5t-184 -57.5q-109 0 -188.5 53t-119.5 153l76 23q35 -79 92.5 -116.5t143.5 -37.5q73 0 118 37.5t45 98.5q0 43 -26 73.5t-67.5 47t-91.5 29.5t-100 28t-91.5 35.5 t-67.5 58t-26 90.5q0 90 68.5 143.5t183.5 53.5q106 0 175 -50.5t108 -157.5l-77 -20q-33 79 -83.5 116t-123.5 37q-74 0 -120 -32.5t-46 -85.5zM266 -215v106h79v-106l-33 -77h-35l28 77h-39z" glyph-name="uni0218" horiz-adv-x="611" unicode="Ș"/><glyph d="M485 149q0 -74 -55.5 -116.5t-151.5 -42.5q-180 0 -253 158l68 20q32 -56 73 -81t103 -25q64 0 101 23t37 63q0 39 -38.5 62t-93 34.5t-109 26t-93 49t-38.5 89.5q0 72 59 116.5t155 44.5q181 0 226 -159l-68 -18q-35 105 -156 105q-60 0 -98.5 -23.5t-38.5 -59.5 q0 -34 38 -54t93 -32.5t109.5 -28.5t92.5 -54t38 -97zM216 -215v106h79v-106l-33 -77h-35l28 77h-39z" glyph-name="uni0219" horiz-adv-x="511" unicode="ș"/><glyph d="M278 0v676h-257v74h594v-74h-257v-676h-80zM278 -215v106h79v-106l-33 -77h-35l28 77h-39z" glyph-name="uni021A" horiz-adv-x="635" unicode="Ț"/><glyph d="M375 492h-188v-352q0 -72 54 -72h134v-68h-137q-125 0 -125 118v374h-92v68h36q48 0 61 21t13 99h56v-120h188v-68zM159 -215v106h79v-106l-33 -77h-35l28 77h-39z" glyph-name="uni021B" horiz-adv-x="395" unicode="ț"/><glyph d="M212 -45v605h73v-618q0 -86 -48.5 -134t-136.5 -48h-79v70h66q125 0 125 125z" glyph-name="uni0237" horiz-adv-x="320" unicode="ȷ"/><glyph d="M20 525l120 240h55l120 -240h-55l-92 181l-93 -181h-55z" glyph-name="circumflex" horiz-adv-x="335" unicode="ˆ"/><glyph d="M141 525l-120 240h54l93 -181l93 181h54l-120 -240h-54z" glyph-name="caron" horiz-adv-x="335" unicode="ˇ"/><glyph d="M222 648h44q0 -60 -33 -95t-90 -35t-90 35.5t-33 94.5h44q0 -46 21.5 -68.5t58.5 -22.5q35 0 56.5 23t21.5 68z" glyph-name="breve" horiz-adv-x="287" unicode="˘"/><glyph d="M20 539v106h79v-106h-79z" glyph-name="dotaccent" horiz-adv-x="119" unicode="˙"/><glyph d="M20 642q0 53 34.5 88t87.5 35q54 0 88 -35t34 -88q0 -54 -34 -89t-88 -35t-88 35t-34 89zM62 642q0 -37 22.5 -60.5t57.5 -23.5t57.5 23.5t22.5 60.5q0 36 -22.5 59.5t-57.5 23.5t-57.5 -23.5t-22.5 -59.5z" glyph-name="ring" horiz-adv-x="285" unicode="˚"/><glyph d="M143 0h45l4 -10q-67 -40 -97 -71.5t-30 -61.5q0 -39 46 -39q43 0 55 36h43q-29 -74 -104 -74q-39 0 -61.5 20.5t-22.5 56.5q0 76 122 143z" glyph-name="ogonek" horiz-adv-x="229" unicode="˛"/><glyph d="M340 573q34 0 49 44.5t15 147.5h62q0 -128 -28.5 -186t-91.5 -58q-37 0 -60.5 20t-34 48.5t-19 57t-23.5 48.5t-39 20q-40 0 -61 -50.5t-21 -141.5h-62q0 119 34.5 181.5t99.5 62.5q42 0 68.5 -30.5t36 -66.5t28 -66.5t47.5 -30.5z" glyph-name="tilde" horiz-adv-x="491" unicode="˜"/><glyph d="M60 525h-40l77 240h85zM202 525h-40l76 240h86z" glyph-name="hungarumlaut" horiz-adv-x="344" unicode="˝"/><glyph d="M20 0v106h79v-106l-33 -77h-35l28 77h-39z" glyph-name="uni0326" horiz-adv-x="119" unicode="̦"/><glyph d="M99 -240h-74v800h74v-295q0 -99 43 -151t125 -52q93 0 151 60.5t58 155.5v282h74v-560h-74v118q-33 -60 -89.5 -94t-126.5 -34q-104 0 -161 57v-287z" glyph-name="uni03BC" unicode="μ"/><glyph d="M21 750h83l165 -607l158 607h77l159 -608l164 608h83l-202 -750h-85l-157 633l-158 -633h-85zM546 817h-40l-122 240h85z" glyph-name="Wgrave" horiz-adv-x="930" unicode="Ẁ"/><glyph d="M195 0l-174 560h80l138 -459l128 459h72l128 -459l138 459h80l-174 -560h-78l-130 439l-130 -439h-78zM483 627h-40l-122 240h85z" glyph-name="wgrave" horiz-adv-x="805" unicode="ẁ"/><glyph d="M21 750h83l165 -607l158 607h77l159 -608l164 608h83l-202 -750h-85l-157 633l-158 -633h-85zM439 817h-40l77 240h85z" glyph-name="Wacute" horiz-adv-x="930" unicode="Ẃ"/><glyph d="M195 0l-174 560h80l138 -459l128 459h72l128 -459l138 459h80l-174 -560h-78l-130 439l-130 -439h-78zM376 627h-40l77 240h85z" glyph-name="wacute" horiz-adv-x="805" unicode="ẃ"/><glyph d="M21 750h83l165 -607l158 607h77l159 -608l164 608h83l-202 -750h-85l-157 633l-158 -633h-85zM366 845v106h79v-106h-79zM488 845v106h78v-106h-78z" glyph-name="Wdieresis" horiz-adv-x="930" unicode="Ẅ"/><glyph d="M195 0l-174 560h80l138 -459l128 459h72l128 -459l138 459h80l-174 -560h-78l-130 439l-130 -439h-78zM303 655v106h79v-106h-79zM425 655v106h78v-106h-78z" glyph-name="wdieresis" horiz-adv-x="805" unicode="ẅ"/><glyph d="M20 343v64h500v-64h-500z" glyph-name="endash" horiz-adv-x="541" unicode="–"/><glyph d="M20 343v64h850v-64h-850z" glyph-name="emdash" horiz-adv-x="891" unicode="—"/><glyph d="M104 672v-106h-79v106l33 78h35l-28 -78h39z" glyph-name="quoteleft" horiz-adv-x="129" unicode="‘"/><glyph d="M20 644v106h79v-106l-33 -77h-35l28 77h-39z" glyph-name="quoteright" horiz-adv-x="119" unicode="’"/><glyph d="M25 0v106h79v-106l-33 -77h-35l28 77h-39z" glyph-name="quotesinglbase" horiz-adv-x="129" unicode="‚"/><glyph d="M104 672v-106h-79v106l33 78h35l-28 -78h39zM199 672v-106h-79v106l33 78h35l-28 -78h39z" glyph-name="quotedblleft" horiz-adv-x="224" unicode="“"/><glyph d="M25 643v106h79v-106l-33 -78h-35l28 78h-39zM120 643v106h79v-106l-33 -78h-35l28 78h-39z" glyph-name="quotedblright" horiz-adv-x="224" unicode="”"/><glyph d="M25 0v106h79v-106l-33 -77h-35l28 77h-39zM120 0v106h79v-106l-33 -77h-35l28 77h-39z" glyph-name="quotedblbase" horiz-adv-x="224" unicode="„"/><glyph d="M195 -210l20 704l-195 -10v70l195 -10l-20 206h80l-20 -206l195 10v-70l-195 10l20 -704h-80z" glyph-name="dagger" horiz-adv-x="471" unicode="†"/><glyph d="M249 179v315l-189 -10v70l189 -10l-14 206h80l-14 -206l189 10v-70l-189 10v-315l229 15v-70l-229 15l14 -349h-80l14 349l-229 -15v70z" glyph-name="daggerdbl" horiz-adv-x="551" unicode="‡"/><glyph d="M90 295q-34 0 -49.5 15.5t-15.5 49.5t15.5 49.5t49.5 15.5t49.5 -15.5t15.5 -49.5t-15.5 -49.5t-49.5 -15.5z" glyph-name="bullet" horiz-adv-x="181" unicode="•"/><glyph d="M25 0v106h79v-106h-79zM145 0v106h79v-106h-79zM265 0v106h79v-106h-79z" glyph-name="ellipsis" horiz-adv-x="369" unicode="…"/><glyph d="M395 158q0 80 32 124t90 44t90 -44t32 -124q0 -81 -31.5 -124.5t-90.5 -43.5t-90.5 43.5t-31.5 124.5zM663 158q0 80 31.5 123.5t90.5 43.5t90.5 -43.5t31.5 -123.5q0 -81 -31.5 -124.5t-90.5 -43.5t-90.5 43.5t-31.5 124.5zM542 733l-370 -743h-58l366 735h-257 q41 -43 41 -133q0 -81 -31.5 -124.5t-90.5 -43.5t-90.5 43.5t-31.5 124.5q0 79 31.5 123.5t94.5 44.5h387zM437 158q0 -131 80 -131t80 132q0 130 -80 130t-80 -131zM704 158q0 -131 81 -131q80 0 80 132q0 130 -80 130q-81 0 -81 -131zM62 592q0 -131 80 -131t80 132 q0 130 -80 130t-80 -131z" glyph-name="perthousand" horiz-adv-x="927" unicode="‰"/><glyph d="M20 280l137 280h80l-137 -280l137 -280h-80z" glyph-name="guilsinglleft" horiz-adv-x="258" unicode="‹"/><glyph d="M237 280l-137 -280h-80l137 280l-137 280h80z" glyph-name="guilsinglright" horiz-adv-x="258" unicode="›"/><glyph d="M10 -10l384 770h57l-384 -770h-57z" glyph-name="fraction" horiz-adv-x="461" unicode="⁄"/><glyph d="M70 0v115h-53v43h53v592h504v-74h-424v-272h404v-74h-404v-172h296v-43h-296v-115h-80z" glyph-name="franc" horiz-adv-x="586" unicode="₣"/><glyph d="M266 0h-80v416l-166 -61v53l166 61v90l-166 -61v53l166 61v139h80v-110l300 111v-53l-300 -111v-90l300 111v-53l-300 -111v-365q145 0 236.5 85t91.5 220h80q0 -168 -115 -276.5t-293 -108.5z" glyph-name="lira" horiz-adv-x="695" unicode="₤"/><glyph d="M25 404v62h107q23 136 113 215t225 79q116 0 198 -60t117 -171l-85 -24q-24 83 -84.5 131.5t-139.5 48.5q-97 0 -165.5 -58.5t-90.5 -160.5h240v-62h-249q-3 -41 3 -82h246v-62h-234q26 -91 92.5 -143t161.5 -52q79 0 137 46t82 126l86 -16q-35 -111 -117 -171t-198 -60 q-128 0 -216.5 72.5t-117.5 197.5h-111v62h101q-4 38 -1 82h-100z" glyph-name="Euro" horiz-adv-x="810" unicode="€"/><glyph d="M133 429v296h-113v35h264v-35h-113v-296h-38zM300 429v331h45l123 -288l123 288h45v-331h-35v276l-115 -276h-36l-114 276v-276h-36z" glyph-name="trademark" horiz-adv-x="672" unicode="™"/><glyph d="M395 750h113l-335 -335h652v-80h-652l335 -335h-113l-375 375z" glyph-name="arrowleft" horiz-adv-x="845" unicode="←"/><glyph d="M770 426v-113l-335 335v-652h-80v652l-335 -335v113l375 375z" glyph-name="arrowup" horiz-adv-x="790" unicode="↑"/><glyph d="M337 750h113l375 -375l-375 -375h-113l335 335h-652v80h652z" glyph-name="arrowright" horiz-adv-x="845" unicode="→"/><glyph d="M20 346v113l335 -335v652h80v-652l335 335v-113l-375 -375z" glyph-name="arrowdown" horiz-adv-x="790" unicode="↓"/><glyph d="M395 750h113l-335 -335h822l-335 335h113l375 -375l-375 -375h-113l335 335h-822l335 -335h-113l-375 375z" glyph-name="arrowboth" horiz-adv-x="1168" unicode="↔"/><glyph d="M770 577v-113l-335 335v-822l335 335v-113l-375 -375l-375 375v113l335 -335v822l-335 -335v113l375 375z" glyph-name="arrowupdn" horiz-adv-x="790" unicode="↕"/><glyph d="M35 750h731v-80h-596l618 -616l-57 -57l-616 616v-587h-80v724z" glyph-name="uni2196" horiz-adv-x="823" unicode="↖"/><glyph d="M57 750h731v-724h-80v587l-616 -616l-57 57l618 616h-596v80z" glyph-name="uni2197" horiz-adv-x="823" unicode="↗"/><glyph d="M788 0h-731v80h596l-618 616l57 57l616 -616v587h80v-724z" glyph-name="uni2198" horiz-adv-x="823" unicode="↘"/><glyph d="M766 0h-731v724h80v-587l616 616l57 -57l-618 -616h596v-80z" glyph-name="uni2199" horiz-adv-x="823" unicode="↙"/><glyph d="M20 343v64h400v-64h-400z" glyph-name="minus" horiz-adv-x="441" unicode="−"/><glyph d="M20 707v43h555v-43h-83v-241q0 -16 -14 -23l-79 -38q-17 -9 -17 -31t17 -30l79 -38q14 -6 14 -20v-243h83v-43h-555v43h82v243q0 14 14 20l79 38q17 7 17 30q0 22 -17 31l-79 38q-14 8 -14 23v241h-82zM311 321l114 -55v-203h-255v203l115 55q13 6 26 0zM150 252v-209 h295v209q0 24 -13 30l-71 36q-26 14 -26 35v43q0 23 26 36l71 36q13 6 13 30v209h-295v-209q0 -24 13 -30l71 -36q26 -13 26 -36v-43q0 -21 -26 -35l-71 -36q-13 -6 -13 -30z" glyph-name="uni231B" horiz-adv-x="595" unicode="⌛"/><glyph d="M476 80h47v-80h-370v80h48q35 0 57.5 17t22.5 44v56q-42 -33 -98 -33q-69 0 -113.5 47.5t-44.5 116.5q0 49 22.5 93.5t59.5 81.5t76.5 72t81.5 81.5t66 93.5q10 20 20 0q24 -47 65 -93.5t79.5 -81.5t74.5 -72t57.5 -81.5t21.5 -93.5q0 -69 -44.5 -116.5t-113.5 -47.5 q-53 0 -95 31v-54q0 -27 22.5 -44t57.5 -17z" glyph-name="spade" horiz-adv-x="675" unicode="♠"/><glyph d="M518 80h47v-80h-370v80h48q35 0 57.5 17t22.5 44v56q-49 -38 -113 -38q-77 0 -131 53.5t-54 130.5q0 75 51 128.5t126 56.5q-6 22 -6 47q0 77 54.5 131t130.5 54q77 0 130.5 -53.5t53.5 -131.5q0 -25 -6 -47q74 -5 124 -57.5t50 -127.5q0 -77 -54 -130.5t-131 -53.5 q-61 0 -110 36v-54q0 -27 22.5 -44t57.5 -17z" glyph-name="club" horiz-adv-x="759" unicode="♣"/><glyph d="M25 585q0 73 51 124t124 51q62 0 109 -37.5t61 -95.5q14 58 61 95.5t109 37.5q73 0 124 -51t51 -124v-7q-2 -57 -38 -129t-82.5 -133.5t-108 -151t-98.5 -161.5q-6 -14 -13 -14q-5 0 -13 14q-37 72 -100 161t-111 151t-86 134t-40 129v7z" glyph-name="heart" horiz-adv-x="741" unicode="♥"/><glyph d="M247 3l-218 347q-16 25 0 50l218 347q9 13 16 13q9 0 16 -13l218 -347q16 -25 0 -50l-218 -347q-7 -13 -16 -13q-7 0 -16 13z" glyph-name="diamond" horiz-adv-x="527" unicode="♦"/><glyph d="M31 82l164 304l-29 16l90 45l13 -102l-31 17l-156 -287q-14 -27 15 -27h281v-48h-303q-26 0 -36 16l-15 28q-7 14 7 38zM762 0h-279v-33l-84 58l84 60v-36h260q30 0 17 25l-151 281l43 22l160 -299q13 -23 4 -40l-17 -25q-8 -13 -37 -13zM469 725l138 -254l28 16 l-10 -104l-94 46l33 18l-127 237q-5 11 -15 11q-8 0 -14 -11l-125 -231l-42 24l135 248q12 25 31 25h31q17 0 31 -25z" glyph-name="uni267A" horiz-adv-x="842" unicode="♺"/><glyph d="M371 133v46h34v-46h-34zM399 199h-23l-9 259h43zM20 0l375 750l375 -750h-750zM99 48h591l-295 594z" glyph-name="uni26A0" horiz-adv-x="791" unicode="⚠"/><glyph d="M686 529l-84 -24q-24 83 -84.5 131.5t-139.5 48.5q-119 0 -192.5 -84.5t-73.5 -225.5t73.5 -225.5t195.5 -84.5q79 0 137.5 46t81.5 126l86 -16q-35 -111 -116.5 -171t-197.5 -60q-157 0 -251.5 105.5t-94.5 279.5t94.5 279.5t251.5 105.5q116 0 197.5 -60t116.5 -171z " glyph-name="uniE001" horiz-adv-x="711" unicode=""/><glyph d="M35 0v750h304q114 0 185 -70.5t71 -183.5q0 -83 -39 -145t-108 -90l168 -261h-91l-155 241h-255v-241h-80zM115 314h206q87 0 138 49t51 132t-51 132t-138 49h-206v-362z" glyph-name="uniE002" horiz-adv-x="641" unicode=""/><glyph d="M570 68h20v-68h-46q-74 0 -78 115q-32 -59 -85 -92t-120 -33q-110 0 -180.5 83t-70.5 211q0 127 69 206.5t180 79.5q140 0 207 -122v112h74v-455q0 -37 30 -37zM466 282q0 96 -51.5 156t-134.5 60q-84 0 -137.5 -60t-53.5 -154q0 -95 54.5 -158.5t136.5 -63.5 q80 0 133 62.5t53 157.5z" glyph-name="uniE003" horiz-adv-x="595" unicode=""/><glyph d="M25 515q0 115 45.5 177.5t128.5 62.5t128 -62.5t45 -177.5t-45 -177.5t-128 -62.5t-128.5 62.5t-45.5 177.5zM79 516q0 -194 119 -194q120 0 120 194q0 192 -119 192q-120 0 -120 -192z" glyph-name="uniE004" horiz-adv-x="397" unicode=""/><glyph d="M84 675h-58v31q36 0 52 10t18 34h38v-470h-50v395z" glyph-name="uniE005" horiz-adv-x="170" unicode=""/><glyph d="M351 627q0 -67 -73 -136l-176 -165h250v-46h-329v43l209 193q66 62 66 110q0 35 -27 58.5t-67 23.5q-47 0 -79 -23t-56 -73l-48 13q58 130 185 130q65 0 105 -35t40 -93z" glyph-name="uniE006" horiz-adv-x="373" unicode=""/><glyph d="M214 530h-32l-30 26l158 148h-256v47h322v-46l-144 -140q68 -3 109 -39t41 -93q0 -74 -44 -115.5t-123 -41.5q-141 0 -190 144l51 15q40 -112 136 -112q53 0 84.5 28.5t31.5 75.5t-31 75t-83 28z" glyph-name="uniE007" horiz-adv-x="408" unicode=""/><glyph d="M21 388v47l229 315h60v-316h58v-46h-58v-108h-50v108h-239zM70 434h190v259z" glyph-name="uniE008" horiz-adv-x="403" unicode=""/><glyph d="M81 483l-50 12l35 255h303v-46h-261l-23 -170q56 66 144 66q72 0 112.5 -41t40.5 -114q0 -78 -45.5 -124t-123.5 -46q-70 0 -119 38t-69 106l52 10q40 -107 136 -107q55 0 85 32t30 89q0 55 -28 85t-80 30q-78 0 -139 -75z" glyph-name="uniE009" horiz-adv-x="403" unicode=""/><glyph d="M371 440q0 -75 -44.5 -120t-118.5 -45q-85 0 -134 60.5t-49 167.5q0 116 50 184t135 68q106 0 151 -104l-42 -18q-33 78 -110 78q-59 0 -94.5 -51t-35.5 -140q42 79 137 79q71 0 113 -43t42 -116zM318 434q0 54 -30 86.5t-79 32.5q-48 0 -80 -31.5t-32 -79.5 q0 -49 34 -84.5t83 -35.5q46 0 75 31t29 81z" glyph-name="uniE010" horiz-adv-x="397" unicode=""/><glyph d="M20 704v46h311v-50l-236 -420h-58l240 424h-257z" glyph-name="uniE011" horiz-adv-x="352" unicode=""/><glyph d="M25 408q0 74 76 117q-64 35 -64 98q0 58 45 95t116 37q72 0 116.5 -37t44.5 -96q0 -61 -63 -98q75 -40 75 -113q0 -60 -48.5 -98t-125.5 -38q-75 0 -123.5 37.5t-48.5 95.5zM78 416q0 -42 33.5 -68t86.5 -26q52 0 86 25t34 64q0 43 -31 66.5t-88 23.5q-56 0 -88.5 -22.5 t-32.5 -62.5zM90 619q0 -38 29.5 -58.5t79.5 -20.5t78.5 20.5t28.5 58.5q0 39 -29.5 64t-77.5 25t-78.5 -24.5t-30.5 -64.5z" glyph-name="uniE012" horiz-adv-x="397" unicode=""/><glyph d="M192 317q61 0 93.5 49t32.5 143q-17 -36 -54 -57t-85 -21q-70 0 -112 42.5t-42 115.5q0 76 45 121t120 45q85 0 133 -60.5t48 -168.5q0 -119 -46 -185t-131 -66q-115 0 -159 103l43 19q30 -80 114 -80zM312 588q0 54 -34.5 89.5t-86.5 35.5q-51 0 -82 -33.5t-31 -88.5 q0 -54 31 -86t84 -32q52 0 85.5 31t33.5 84z" glyph-name="uniE013" horiz-adv-x="397" unicode=""/><glyph d="M906 560v-68h-140v-376q0 -48 45 -48h95v-68h-99q-59 0 -87 26.5t-28 83.5v382h-70v68h30q54 0 54 78q0 71 -42.5 110.5t-118.5 39.5q-72 0 -116.5 -33.5t-44.5 -87.5q0 -28 13.5 -55.5t35 -52.5t43.5 -51.5t43 -63t30 -76.5l-74 -14q-20 68 -67 106t-113 38 q-85 0 -138 -60.5t-53 -157.5t53 -157.5t138 -60.5q66 0 113 38t67 106l74 -14q-24 -94 -92 -148t-163 -54q-119 0 -194 81t-75 209q0 125 75 208t189 83q38 0 75 -10q-44 55 -44 118q0 75 61.5 123t158.5 48q106 0 166 -58.5t60 -161.5v-70h140z" glyph-name="uniE016" horiz-adv-x="926" unicode=""/><glyph d="M584 0h-73v676h-153v-676h-80v676h-257v74h563v-308q33 60 89.5 94t127.5 34q112 0 173.5 -62.5t61.5 -175.5v-332h-74v295q0 100 -43 151.5t-125 51.5q-93 0 -151.5 -60.5t-58.5 -155.5v-282z" glyph-name="uniE017" horiz-adv-x="1061" unicode=""/><glyph d="M115 750v-353l364 353h102l-380 -364l114 -13q71 -8 114 -42.5t70 -104.5l86 -221v-5h-84l-74 193q-40 99 -145 109l-167 18v-320h-80v750h80z" glyph-name="uniE018" horiz-adv-x="605" unicode=""/><glyph d="M686 529l-76 -20q-26 88 -91.5 132t-149.5 44q-86 0 -146 -46t-86.5 -115.5t-26.5 -155.5q0 -135 76 -219t188 -84q120 0 189 84t60 204h-250v72h337v-425h-80v132q-84 -142 -261 -142q-155 0 -249.5 104.5t-94.5 278.5q0 173 94 280t252 107q116 0 197.5 -59.5 t117.5 -171.5z" glyph-name="uniE019" horiz-adv-x="735" unicode=""/><glyph d="M109 0h-74v560h74v-103q60 113 195 113h53v-72h-74q-78 0 -126 -53t-48 -139v-306z" glyph-name="uniE020" horiz-adv-x="378" unicode=""/><glyph d="M328 0l-308 467h84l270 -408l530 691h84l-576 -750h-84z" glyph-name="uniE081" horiz-adv-x="1008" unicode=""/><glyph d="M321 459l91 289l90 -289h301l-246 -172l97 -287l-242 181l-243 -181l97 287l-246 172h301z" glyph-name="uniE082" horiz-adv-x="824" unicode=""/><glyph d="M25 376q0 160 113.5 273.5t273.5 113.5t273.5 -113.5t113.5 -273.5t-113.5 -273.5t-273.5 -113.5t-273.5 113.5t-113.5 273.5zM571 290q-10 -55 -55 -88.5t-106 -33.5t-103.5 33t-52.5 89l43 13q7 -45 37.5 -70t75.5 -25q44 0 76.5 25.5t41.5 69.5zM241 481q0 14 10.5 24 t24.5 10q15 0 25.5 -10t10.5 -24t-10.5 -24.5t-25.5 -10.5q-14 0 -24.5 10.5t-10.5 24.5zM519 481q0 14 10.5 24t25.5 10q14 0 24.5 -10t10.5 -24t-10.5 -24.5t-24.5 -10.5q-15 0 -25.5 10.5t-10.5 24.5zM83 376q0 -137 96.5 -233.5t232.5 -96.5t232.5 96.5t96.5 233.5 t-96.5 233.5t-232.5 96.5t-232.5 -96.5t-96.5 -233.5z" glyph-name="uniE0E8" horiz-adv-x="825" unicode=""/><glyph d="M308 249l-159 -159l-39 39l160 159zM423 225v-225h-55v225h55zM245 347h-225v55h225v-55zM269 461l-159 159l39 39l159 -159zM270 375q0 52 36.5 88.5t88.5 36.5t88.5 -36.5t36.5 -88.5t-36.5 -88.5t-88.5 -36.5t-88.5 36.5t-36.5 88.5zM520 288l160 -159l-40 -39 l-159 159zM368 525v225h55v-225h-55zM482 500l159 159l39 -39l-160 -159zM545 402h225v-55h-225v55z" glyph-name="uniE284" horiz-adv-x="791" unicode=""/><glyph d="M485 149q0 -74 -56 -116.5t-153 -42.5q-178 0 -251 158l67 20q32 -59 73.5 -84.5t104.5 -25.5q65 0 100.5 24t35.5 67q0 42 -38 67t-92.5 37.5t-109.5 26.5t-93 47t-38 86q0 78 64.5 117t150.5 39q29 0 59 -5q-25 24 -37.5 49t-12.5 66q0 75 61.5 123t158.5 48 q106 0 166 -58.5t60 -161.5v-70h140v-68h-140v-376q0 -48 45 -48h95v-68h-99q-59 0 -87 26.5t-28 83.5v382h-70v68h31q53 0 53 78q0 71 -42.5 110.5t-118.5 39.5q-71 0 -116 -33.5t-45 -89.5q0 -33 18.5 -63t43 -51t51 -58t39.5 -81l-68 -19q-34 109 -155 109 q-60 0 -99 -25.5t-39 -64.5q0 -29 27.5 -48t68.5 -28t89.5 -23t89.5 -29.5t68.5 -50.5t27.5 -84z" glyph-name="uniFB06" horiz-adv-x="865" unicode="ﬆ"/><glyph d="M272 0l-234 560h80l193 -483l192 483h80l-233 -560q0 -250 -157 -250q-129 0 -168 139l63 23q19 -53 41 -73.5t58 -20.5q49 0 67 39t18 143z" glyph-name="uE0021" horiz-adv-x="619" unicode="󠀡"/></font>
</defs>
</svg>
